<?xml version="1.0" encoding="UTF-8" standalone="no"?><svg xmlns="http://www.w3.org/2000/svg" xmlns:xlink="http://www.w3.org/1999/xlink" contentStyleType="text/css" height="751px" preserveAspectRatio="none" style="width:2960px;height:751px;background:#FFFFFF;" version="1.1" viewBox="0 0 2960 751" width="2960px" zoomAndPan="magnify"><defs/><g><!--MD5=[ed9ea340de91a738ebd8971785a41b68]
cluster si_no_app::config::helpers::get_yes_no_answer.dart--><g id="cluster_si_no_app::config::helpers::get_yes_no_answer.dart"><path d="M8.5,422 L375.5,422 A3.75,3.75 0 0 1 378,424.5 L385,445.6094 L385.5,445.6094 A2.5,2.5 0 0 1 388,448.1094 L388,554.5 A2.5,2.5 0 0 1 385.5,557 L8.5,557 A2.5,2.5 0 0 1 6,554.5 L6,424.5 A2.5,2.5 0 0 1 8.5,422 " fill="none" style="stroke:#000000;stroke-width:1.5;"/><line style="stroke:#000000;stroke-width:1.5;" x1="6" x2="385" y1="445.6094" y2="445.6094"/><text fill="#000000" font-family="sans-serif" font-size="14" font-weight="bold" lengthAdjust="spacing" textLength="366" x="10" y="438.5332">si_no_app::config::helpers::get_yes_no_answer.dart</text></g><!--MD5=[77db98a998d47a1148674a014aeb3fa1]
cluster dio::src::dio.dart--><g id="cluster_dio::src::dio.dart"><path d="M230.5,609 L345.5,609 A3.75,3.75 0 0 1 348,611.5 L355,632.6094 L355.5,632.6094 A2.5,2.5 0 0 1 358,635.1094 L358,706.5 A2.5,2.5 0 0 1 355.5,709 L230.5,709 A2.5,2.5 0 0 1 228,706.5 L228,611.5 A2.5,2.5 0 0 1 230.5,609 " fill="none" style="stroke:#000000;stroke-width:1.5;"/><line style="stroke:#000000;stroke-width:1.5;" x1="228" x2="355" y1="632.6094" y2="632.6094"/><text fill="#000000" font-family="sans-serif" font-size="14" font-weight="bold" lengthAdjust="spacing" textLength="114" x="232" y="625.5332">dio::src::dio.dart</text></g><!--MD5=[61d921444d0945fb9da1798cb4a05000]
cluster si_no_app::config::infrastructure::model::yes_no_model.dart--><g id="cluster_si_no_app::config::infrastructure::model::yes_no_model.dart"><path d="M755.5,6 L1177.5,6 A3.75,3.75 0 0 1 1180,8.5 L1187,29.6094 L1187.5,29.6094 A2.5,2.5 0 0 1 1190,32.1094 L1190,156.5 A2.5,2.5 0 0 1 1187.5,159 L755.5,159 A2.5,2.5 0 0 1 753,156.5 L753,8.5 A2.5,2.5 0 0 1 755.5,6 " fill="none" style="stroke:#000000;stroke-width:1.5;"/><line style="stroke:#000000;stroke-width:1.5;" x1="753" x2="1187" y1="29.6094" y2="29.6094"/><text fill="#000000" font-family="sans-serif" font-size="14" font-weight="bold" lengthAdjust="spacing" textLength="421" x="757" y="22.5332">si_no_app::config::infrastructure::model::yes_no_model.dart</text></g><!--MD5=[a21b40df7cae8b765429094ec49e435e]
cluster si_no_app::config::theme::app_theme.dart--><g id="cluster_si_no_app::config::theme::app_theme.dart"><path d="M1330.5,15 L1625.5,15 A3.75,3.75 0 0 1 1628,17.5 L1635,38.6094 L1635.5,38.6094 A2.5,2.5 0 0 1 1638,41.1094 L1638,147.5 A2.5,2.5 0 0 1 1635.5,150 L1330.5,150 A2.5,2.5 0 0 1 1328,147.5 L1328,17.5 A2.5,2.5 0 0 1 1330.5,15 " fill="none" style="stroke:#000000;stroke-width:1.5;"/><line style="stroke:#000000;stroke-width:1.5;" x1="1328" x2="1635" y1="38.6094" y2="38.6094"/><text fill="#000000" font-family="sans-serif" font-size="14" font-weight="bold" lengthAdjust="spacing" textLength="294" x="1332" y="31.5332">si_no_app::config::theme::app_theme.dart</text></g><!--MD5=[20ad535e7bcb2c5abe54474775a4c442]
cluster si_no_app::domain::entities::message.dart--><g id="cluster_si_no_app::domain::entities::message.dart"><path d="M1921.5,413 L2217.5,413 A3.75,3.75 0 0 1 2220,415.5 L2227,436.6094 L2227.5,436.6094 A2.5,2.5 0 0 1 2230,439.1094 L2230,741.5 A2.5,2.5 0 0 1 2227.5,744 L1921.5,744 A2.5,2.5 0 0 1 1919,741.5 L1919,415.5 A2.5,2.5 0 0 1 1921.5,413 " fill="none" style="stroke:#000000;stroke-width:1.5;"/><line style="stroke:#000000;stroke-width:1.5;" x1="1919" x2="2227" y1="436.6094" y2="436.6094"/><text fill="#000000" font-family="sans-serif" font-size="14" font-weight="bold" lengthAdjust="spacing" textLength="295" x="1923" y="429.5332">si_no_app::domain::entities::message.dart</text></g><!--MD5=[de232fdc1314c20d23c64be510ba818f]
cluster dart::core--><g id="cluster_dart::core"><path d="M1797.5,439.5 L1866.5,439.5 A3.75,3.75 0 0 1 1869,442 L1876,463.1094 L1892.5,463.1094 A2.5,2.5 0 0 1 1895,465.6094 L1895,537 A2.5,2.5 0 0 1 1892.5,539.5 L1797.5,539.5 A2.5,2.5 0 0 1 1795,537 L1795,442 A2.5,2.5 0 0 1 1797.5,439.5 " fill="none" style="stroke:#000000;stroke-width:1.5;"/><line style="stroke:#000000;stroke-width:1.5;" x1="1795" x2="1876" y1="463.1094" y2="463.1094"/><text fill="#000000" font-family="sans-serif" font-size="14" font-weight="bold" lengthAdjust="spacing" textLength="68" x="1799" y="456.0332">dart::core</text></g><!--MD5=[1525c820e61a38e417608fb99b05edd4]
cluster si_no_app::main.dart--><g id="cluster_si_no_app::main.dart"><path d="M620.5,227 L766.5,227 A3.75,3.75 0 0 1 769,229.5 L776,250.6094 L776.5,250.6094 A2.5,2.5 0 0 1 779,253.1094 L779,342.5 A2.5,2.5 0 0 1 776.5,345 L620.5,345 A2.5,2.5 0 0 1 618,342.5 L618,229.5 A2.5,2.5 0 0 1 620.5,227 " fill="none" style="stroke:#000000;stroke-width:1.5;"/><line style="stroke:#000000;stroke-width:1.5;" x1="618" x2="776" y1="250.6094" y2="250.6094"/><text fill="#000000" font-family="sans-serif" font-size="14" font-weight="bold" lengthAdjust="spacing" textLength="145" x="622" y="243.5332">si_no_app::main.dart</text></g><!--MD5=[1b91236ccc4e258431d00b8b19fdf6ca]
cluster flutter::src::widgets::framework.dart--><g id="cluster_flutter::src::widgets::framework.dart"><path d="M1721.5,32.5 L1972.5,32.5 A3.75,3.75 0 0 1 1975,35 L1982,56.1094 L1982.5,56.1094 A2.5,2.5 0 0 1 1985,58.6094 L1985,130 A2.5,2.5 0 0 1 1982.5,132.5 L1721.5,132.5 A2.5,2.5 0 0 1 1719,130 L1719,35 A2.5,2.5 0 0 1 1721.5,32.5 " fill="none" style="stroke:#000000;stroke-width:1.5;"/><line style="stroke:#000000;stroke-width:1.5;" x1="1719" x2="1982" y1="56.1094" y2="56.1094"/><text fill="#000000" font-family="sans-serif" font-size="14" font-weight="bold" lengthAdjust="spacing" textLength="250" x="1723" y="49.0332">flutter::src::widgets::framework.dart</text></g><!--MD5=[ea356623b786403976bcbd854d0e16b4]
cluster si_no_app::presentation::chat_screen.dart--><g id="cluster_si_no_app::presentation::chat_screen.dart"><path d="M805.5,227 L1103.5,227 A3.75,3.75 0 0 1 1106,229.5 L1113,250.6094 L1113.5,250.6094 A2.5,2.5 0 0 1 1116,253.1094 L1116,342.5 A2.5,2.5 0 0 1 1113.5,345 L805.5,345 A2.5,2.5 0 0 1 803,342.5 L803,229.5 A2.5,2.5 0 0 1 805.5,227 " fill="none" style="stroke:#000000;stroke-width:1.5;"/><line style="stroke:#000000;stroke-width:1.5;" x1="803" x2="1113" y1="250.6094" y2="250.6094"/><text fill="#000000" font-family="sans-serif" font-size="14" font-weight="bold" lengthAdjust="spacing" textLength="297" x="807" y="243.5332">si_no_app::presentation::chat_screen.dart</text></g><!--MD5=[e748bd30bcd0f73175124bcfd37825c5]
cluster si_no_app::presentation::chat_view.dart--><g id="cluster_si_no_app::presentation::chat_view.dart"><path d="M1142.5,227 L1424.5,227 A3.75,3.75 0 0 1 1427,229.5 L1434,250.6094 L1434.5,250.6094 A2.5,2.5 0 0 1 1437,253.1094 L1437,342.5 A2.5,2.5 0 0 1 1434.5,345 L1142.5,345 A2.5,2.5 0 0 1 1140,342.5 L1140,229.5 A2.5,2.5 0 0 1 1142.5,227 " fill="none" style="stroke:#000000;stroke-width:1.5;"/><line style="stroke:#000000;stroke-width:1.5;" x1="1140" x2="1434" y1="250.6094" y2="250.6094"/><text fill="#000000" font-family="sans-serif" font-size="14" font-weight="bold" lengthAdjust="spacing" textLength="281" x="1144" y="243.5332">si_no_app::presentation::chat_view.dart</text></g><!--MD5=[3767b9377319ddac7a0c9b46803daa19]
cluster si_no_app::presentation::providers::chat_provider.dart--><g id="cluster_si_no_app::presentation::providers::chat_provider.dart"><path d="M194.5,183 L581.5,183 A3.75,3.75 0 0 1 584,185.5 L591,206.6094 L591.5,206.6094 A2.5,2.5 0 0 1 594,209.1094 L594,386.5 A2.5,2.5 0 0 1 591.5,389 L194.5,389 A2.5,2.5 0 0 1 192,386.5 L192,185.5 A2.5,2.5 0 0 1 194.5,183 " fill="none" style="stroke:#000000;stroke-width:1.5;"/><line style="stroke:#000000;stroke-width:1.5;" x1="192" x2="591" y1="206.6094" y2="206.6094"/><text fill="#000000" font-family="sans-serif" font-size="14" font-weight="bold" lengthAdjust="spacing" textLength="386" x="196" y="199.5332">si_no_app::presentation::providers::chat_provider.dart</text></g><!--MD5=[45dc6e40b809177530f56b536abb0ce2]
cluster flutter::src::widgets::scroll_controller.dart--><g id="cluster_flutter::src::widgets::scroll_controller.dart"><path d="M414.5,439.5 L707.5,439.5 A3.75,3.75 0 0 1 710,442 L717,463.1094 L717.5,463.1094 A2.5,2.5 0 0 1 720,465.6094 L720,537 A2.5,2.5 0 0 1 717.5,539.5 L414.5,539.5 A2.5,2.5 0 0 1 412,537 L412,442 A2.5,2.5 0 0 1 414.5,439.5 " fill="none" style="stroke:#000000;stroke-width:1.5;"/><line style="stroke:#000000;stroke-width:1.5;" x1="412" x2="717" y1="463.1094" y2="463.1094"/><text fill="#000000" font-family="sans-serif" font-size="14" font-weight="bold" lengthAdjust="spacing" textLength="292" x="416" y="456.0332">flutter::src::widgets::scroll_controller.dart</text></g><!--MD5=[11a7ffd249e6e4068679c7dd6695b3c6]
cluster flutter::src::foundation::change_notifier.dart--><g id="cluster_flutter::src::foundation::change_notifier.dart"><path d="M233.5,32.5 L542.5,32.5 A3.75,3.75 0 0 1 545,35 L552,56.1094 L552.5,56.1094 A2.5,2.5 0 0 1 555,58.6094 L555,130 A2.5,2.5 0 0 1 552.5,132.5 L233.5,132.5 A2.5,2.5 0 0 1 231,130 L231,35 A2.5,2.5 0 0 1 233.5,32.5 " fill="none" style="stroke:#000000;stroke-width:1.5;"/><line style="stroke:#000000;stroke-width:1.5;" x1="231" x2="552" y1="56.1094" y2="56.1094"/><text fill="#000000" font-family="sans-serif" font-size="14" font-weight="bold" lengthAdjust="spacing" textLength="308" x="235" y="49.0332">flutter::src::foundation::change_notifier.dart</text></g><!--MD5=[9f70589d0b0fbcf2a62d530e565611b1]
cluster si_no_app::presentation::widgets::chat::MyMessageBubble.dart--><g id="cluster_si_no_app::presentation::widgets::chat::MyMessageBubble.dart"><path d="M1463.5,218.5 L1909.5,218.5 A3.75,3.75 0 0 1 1912,221 L1919,242.1094 L1919.5,242.1094 A2.5,2.5 0 0 1 1922,244.6094 L1922,351 A2.5,2.5 0 0 1 1919.5,353.5 L1463.5,353.5 A2.5,2.5 0 0 1 1461,351 L1461,221 A2.5,2.5 0 0 1 1463.5,218.5 " fill="none" style="stroke:#000000;stroke-width:1.5;"/><line style="stroke:#000000;stroke-width:1.5;" x1="1461" x2="1919" y1="242.1094" y2="242.1094"/><text fill="#000000" font-family="sans-serif" font-size="14" font-weight="bold" lengthAdjust="spacing" textLength="445" x="1465" y="235.0332">si_no_app::presentation::widgets::chat::MyMessageBubble.dart</text></g><!--MD5=[4eb7ce1e911dfbb55a9196cd2b7c71e8]
cluster si_no_app::presentation::widgets::chat::MyMessageBubbleOther.dart--><g id="cluster_si_no_app::presentation::widgets::chat::MyMessageBubbleOther.dart"><path d="M1948.5,209.5 L2434.5,209.5 A3.75,3.75 0 0 1 2437,212 L2444,233.1094 L2444.5,233.1094 A2.5,2.5 0 0 1 2447,235.6094 L2447,360 A2.5,2.5 0 0 1 2444.5,362.5 L1948.5,362.5 A2.5,2.5 0 0 1 1946,360 L1946,212 A2.5,2.5 0 0 1 1948.5,209.5 " fill="none" style="stroke:#000000;stroke-width:1.5;"/><line style="stroke:#000000;stroke-width:1.5;" x1="1946" x2="2444" y1="233.1094" y2="233.1094"/><text fill="#000000" font-family="sans-serif" font-size="14" font-weight="bold" lengthAdjust="spacing" textLength="485" x="1950" y="226.0332">si_no_app::presentation::widgets::chat::MyMessageBubbleOther.dart</text></g><!--MD5=[4d2701f4550a3bbf84eac993333870cb]
cluster si_no_app::presentation::widgets::shared::message_field_box.dart--><g id="cluster_si_no_app::presentation::widgets::shared::message_field_box.dart"><path d="M2473.5,218.5 L2940.5,218.5 A3.75,3.75 0 0 1 2943,221 L2950,242.1094 L2950.5,242.1094 A2.5,2.5 0 0 1 2953,244.6094 L2953,351 A2.5,2.5 0 0 1 2950.5,353.5 L2473.5,353.5 A2.5,2.5 0 0 1 2471,351 L2471,221 A2.5,2.5 0 0 1 2473.5,218.5 " fill="none" style="stroke:#000000;stroke-width:1.5;"/><line style="stroke:#000000;stroke-width:1.5;" x1="2471" x2="2950" y1="242.1094" y2="242.1094"/><text fill="#000000" font-family="sans-serif" font-size="14" font-weight="bold" lengthAdjust="spacing" textLength="466" x="2475" y="235.0332">si_no_app::presentation::widgets::shared::message_field_box.dart</text></g><!--MD5=[38db5c3e3c562075113479a279815374]
cluster flutter::src::foundation::basic_types.dart--><g id="cluster_flutter::src::foundation::basic_types.dart"><path d="M2448.5,439.5 L2729.5,439.5 A3.75,3.75 0 0 1 2732,442 L2739,463.1094 L2739.5,463.1094 A2.5,2.5 0 0 1 2742,465.6094 L2742,537 A2.5,2.5 0 0 1 2739.5,539.5 L2448.5,539.5 A2.5,2.5 0 0 1 2446,537 L2446,442 A2.5,2.5 0 0 1 2448.5,439.5 " fill="none" style="stroke:#000000;stroke-width:1.5;"/><line style="stroke:#000000;stroke-width:1.5;" x1="2446" x2="2739" y1="463.1094" y2="463.1094"/><text fill="#000000" font-family="sans-serif" font-size="14" font-weight="bold" lengthAdjust="spacing" textLength="280" x="2450" y="456.0332">flutter::src::foundation::basic_types.dart</text></g><!--MD5=[815160936fdc50835a79151f4a17229f]
class si_no_app::config::helpers::get_yes_no_answer.dart::GetYesNoAnswer--><g id="elem_si_no_app::config::helpers::get_yes_no_answer.dart::GetYesNoAnswer"><rect codeLine="3" fill="#F1F1F1" height="83.2188" id="si_no_app::config::helpers::get_yes_no_answer.dart::GetYesNoAnswer" rx="2.5" ry="2.5" style="stroke:#181818;stroke-width:0.5;" width="158" x="214" y="458"/><ellipse cx="236.2" cy="474" fill="#ADD1B2" rx="11" ry="11" style="stroke:#181818;stroke-width:1.0;"/><path d="M238.9656,469.875 Q239.1219,469.6563 239.3094,469.5469 Q239.4969,469.4375 239.7156,469.4375 Q240.0906,469.4375 240.325,469.7031 Q240.5594,469.9531 240.5594,470.5625 L240.5594,472.0156 Q240.5594,472.625 240.325,472.8906 Q240.0906,473.1563 239.7156,473.1563 Q239.3719,473.1563 239.1688,472.9531 Q238.9656,472.7656 238.8563,472.25 Q238.8094,471.8906 238.6219,471.7031 Q238.2938,471.3281 237.6844,471.1094 Q237.075,470.8906 236.45,470.8906 Q235.6844,470.8906 235.0438,471.2188 Q234.4188,471.5469 233.9188,472.2969 Q233.4344,473.0469 233.4344,474.0781 L233.4344,475.1719 Q233.4344,476.4063 234.325,477.2344 Q235.2156,478.0469 236.8094,478.0469 Q237.7469,478.0469 238.4031,477.7969 Q238.7938,477.6406 239.2156,477.2031 Q239.4813,476.9375 239.6219,476.8594 Q239.7781,476.7813 239.9813,476.7813 Q240.3094,476.7813 240.5594,477.0469 Q240.825,477.2969 240.825,477.6406 Q240.825,477.9844 240.4813,478.3906 Q239.9813,478.9688 239.1844,479.2969 Q238.1063,479.75 236.8094,479.75 Q235.2938,479.75 234.0906,479.125 Q233.1063,478.625 232.4188,477.5625 Q231.7313,476.4844 231.7313,475.2031 L231.7313,474.0469 Q231.7313,472.7188 232.3406,471.5781 Q232.9656,470.4219 234.0594,469.8125 Q235.1531,469.1875 236.3875,469.1875 Q237.1219,469.1875 237.7625,469.3594 Q238.4188,469.5156 238.9656,469.875 Z " fill="#000000"/><text fill="#000000" font-family="sans-serif" font-size="14" lengthAdjust="spacing" textLength="110" x="251.8" y="479.7285">GetYesNoAnswer</text><line style="stroke:#181818;stroke-width:0.5;" x1="215" x2="371" y1="490" y2="490"/><rect fill="none" height="6" style="stroke:#C82930;stroke-width:1.0;" width="6" x="222" y="501.3047"/><text fill="#000000" font-family="sans-serif" font-size="14" lengthAdjust="spacing" textLength="52" x="234" y="508.5332">Dio _dio</text><line style="stroke:#181818;stroke-width:0.5;" x1="215" x2="371" y1="515.6094" y2="515.6094"/><ellipse cx="225" cy="529.9141" fill="#84BE84" rx="3" ry="3" style="stroke:#038048;stroke-width:1.0;"/><text fill="#000000" font-family="sans-serif" font-size="14" lengthAdjust="spacing" textLength="132" x="234" y="534.1426">dynamic getAnswer()</text></g><!--MD5=[9a3c5c7ede1d6f261d5d20b8ccd209b0]
class dio::src::dio.dart::Dio--><g id="elem_dio::src::dio.dart::Dio"><rect fill="#F1F1F1" height="48" id="dio::src::dio.dart::Dio" rx="2.5" ry="2.5" style="stroke:#181818;stroke-width:0.5;" width="53" x="266.5" y="645"/><ellipse cx="281.5" cy="661" fill="#ADD1B2" rx="11" ry="11" style="stroke:#181818;stroke-width:1.0;"/><path d="M284.2656,656.875 Q284.4219,656.6563 284.6094,656.5469 Q284.7969,656.4375 285.0156,656.4375 Q285.3906,656.4375 285.625,656.7031 Q285.8594,656.9531 285.8594,657.5625 L285.8594,659.0156 Q285.8594,659.625 285.625,659.8906 Q285.3906,660.1563 285.0156,660.1563 Q284.6719,660.1563 284.4688,659.9531 Q284.2656,659.7656 284.1563,659.25 Q284.1094,658.8906 283.9219,658.7031 Q283.5938,658.3281 282.9844,658.1094 Q282.375,657.8906 281.75,657.8906 Q280.9844,657.8906 280.3438,658.2188 Q279.7188,658.5469 279.2188,659.2969 Q278.7344,660.0469 278.7344,661.0781 L278.7344,662.1719 Q278.7344,663.4063 279.625,664.2344 Q280.5156,665.0469 282.1094,665.0469 Q283.0469,665.0469 283.7031,664.7969 Q284.0938,664.6406 284.5156,664.2031 Q284.7813,663.9375 284.9219,663.8594 Q285.0781,663.7813 285.2813,663.7813 Q285.6094,663.7813 285.8594,664.0469 Q286.125,664.2969 286.125,664.6406 Q286.125,664.9844 285.7813,665.3906 Q285.2813,665.9688 284.4844,666.2969 Q283.4063,666.75 282.1094,666.75 Q280.5938,666.75 279.3906,666.125 Q278.4063,665.625 277.7188,664.5625 Q277.0313,663.4844 277.0313,662.2031 L277.0313,661.0469 Q277.0313,659.7188 277.6406,658.5781 Q278.2656,657.4219 279.3594,656.8125 Q280.4531,656.1875 281.6875,656.1875 Q282.4219,656.1875 283.0625,656.3594 Q283.7188,656.5156 284.2656,656.875 Z " fill="#000000"/><text fill="#000000" font-family="sans-serif" font-size="14" lengthAdjust="spacing" textLength="21" x="295.5" y="666.7285">Dio</text><line style="stroke:#181818;stroke-width:0.5;" x1="267.5" x2="318.5" y1="677" y2="677"/><line style="stroke:#181818;stroke-width:0.5;" x1="267.5" x2="318.5" y1="685" y2="685"/></g><!--MD5=[e7e10339dc6a4cff06c609ea4d8f6737]
class si_no_app::config::infrastructure::model::yes_no_model.dart::YesNoModel--><g id="elem_si_no_app::config::infrastructure::model::yes_no_model.dart::YesNoModel"><rect codeLine="10" fill="#F1F1F1" height="100.8281" id="si_no_app::config::infrastructure::model::yes_no_model.dart::YesNoModel" rx="2.5" ry="2.5" style="stroke:#181818;stroke-width:0.5;" width="122" x="910" y="42"/><ellipse cx="929.95" cy="58" fill="#ADD1B2" rx="11" ry="11" style="stroke:#181818;stroke-width:1.0;"/><path d="M932.7156,53.875 Q932.8719,53.6563 933.0594,53.5469 Q933.2469,53.4375 933.4656,53.4375 Q933.8406,53.4375 934.075,53.7031 Q934.3094,53.9531 934.3094,54.5625 L934.3094,56.0156 Q934.3094,56.625 934.075,56.8906 Q933.8406,57.1563 933.4656,57.1563 Q933.1219,57.1563 932.9188,56.9531 Q932.7156,56.7656 932.6063,56.25 Q932.5594,55.8906 932.3719,55.7031 Q932.0438,55.3281 931.4344,55.1094 Q930.825,54.8906 930.2,54.8906 Q929.4344,54.8906 928.7938,55.2188 Q928.1688,55.5469 927.6688,56.2969 Q927.1844,57.0469 927.1844,58.0781 L927.1844,59.1719 Q927.1844,60.4063 928.075,61.2344 Q928.9656,62.0469 930.5594,62.0469 Q931.4969,62.0469 932.1531,61.7969 Q932.5438,61.6406 932.9656,61.2031 Q933.2313,60.9375 933.3719,60.8594 Q933.5281,60.7813 933.7313,60.7813 Q934.0594,60.7813 934.3094,61.0469 Q934.575,61.2969 934.575,61.6406 Q934.575,61.9844 934.2313,62.3906 Q933.7313,62.9688 932.9344,63.2969 Q931.8563,63.75 930.5594,63.75 Q929.0438,63.75 927.8406,63.125 Q926.8563,62.625 926.1688,61.5625 Q925.4813,60.4844 925.4813,59.2031 L925.4813,58.0469 Q925.4813,56.7188 926.0906,55.5781 Q926.7156,54.4219 927.8094,53.8125 Q928.9031,53.1875 930.1375,53.1875 Q930.8719,53.1875 931.5125,53.3594 Q932.1688,53.5156 932.7156,53.875 Z " fill="#000000"/><text fill="#000000" font-family="sans-serif" font-size="14" lengthAdjust="spacing" textLength="79" x="945.05" y="63.7285">YesNoModel</text><line style="stroke:#181818;stroke-width:0.5;" x1="911" x2="1031" y1="74" y2="74"/><ellipse cx="921" cy="88.3047" fill="none" rx="3" ry="3" style="stroke:#038048;stroke-width:1.0;"/><text fill="#000000" font-family="sans-serif" font-size="14" lengthAdjust="spacing" textLength="86" x="930" y="92.5332">String answer</text><ellipse cx="921" cy="105.9141" fill="none" rx="3" ry="3" style="stroke:#038048;stroke-width:1.0;"/><text fill="#000000" font-family="sans-serif" font-size="14" lengthAdjust="spacing" textLength="71" x="930" y="110.1426">bool forced</text><ellipse cx="921" cy="123.5234" fill="none" rx="3" ry="3" style="stroke:#038048;stroke-width:1.0;"/><text fill="#000000" font-family="sans-serif" font-size="14" lengthAdjust="spacing" textLength="96" x="930" y="127.752">String imageUrl</text><line style="stroke:#181818;stroke-width:0.5;" x1="911" x2="1031" y1="134.8281" y2="134.8281"/></g><!--MD5=[7dea8b25c7248ba8672856c74219b2a0]
class si_no_app::config::theme::app_theme.dart::AppTheme--><g id="elem_si_no_app::config::theme::app_theme.dart::AppTheme"><rect codeLine="16" fill="#F1F1F1" height="83.2188" id="si_no_app::config::theme::app_theme.dart::AppTheme" rx="2.5" ry="2.5" style="stroke:#181818;stroke-width:0.5;" width="153" x="1406.5" y="51"/><ellipse cx="1444.9" cy="67" fill="#ADD1B2" rx="11" ry="11" style="stroke:#181818;stroke-width:1.0;"/><path d="M1447.6656,62.875 Q1447.8219,62.6563 1448.0094,62.5469 Q1448.1969,62.4375 1448.4156,62.4375 Q1448.7906,62.4375 1449.025,62.7031 Q1449.2594,62.9531 1449.2594,63.5625 L1449.2594,65.0156 Q1449.2594,65.625 1449.025,65.8906 Q1448.7906,66.1563 1448.4156,66.1563 Q1448.0719,66.1563 1447.8688,65.9531 Q1447.6656,65.7656 1447.5563,65.25 Q1447.5094,64.8906 1447.3219,64.7031 Q1446.9938,64.3281 1446.3844,64.1094 Q1445.775,63.8906 1445.15,63.8906 Q1444.3844,63.8906 1443.7438,64.2188 Q1443.1188,64.5469 1442.6188,65.2969 Q1442.1344,66.0469 1442.1344,67.0781 L1442.1344,68.1719 Q1442.1344,69.4063 1443.025,70.2344 Q1443.9156,71.0469 1445.5094,71.0469 Q1446.4469,71.0469 1447.1031,70.7969 Q1447.4938,70.6406 1447.9156,70.2031 Q1448.1813,69.9375 1448.3219,69.8594 Q1448.4781,69.7813 1448.6813,69.7813 Q1449.0094,69.7813 1449.2594,70.0469 Q1449.525,70.2969 1449.525,70.6406 Q1449.525,70.9844 1449.1813,71.3906 Q1448.6813,71.9688 1447.8844,72.2969 Q1446.8063,72.75 1445.5094,72.75 Q1443.9938,72.75 1442.7906,72.125 Q1441.8063,71.625 1441.1188,70.5625 Q1440.4313,69.4844 1440.4313,68.2031 L1440.4313,67.0469 Q1440.4313,65.7188 1441.0406,64.5781 Q1441.6656,63.4219 1442.7594,62.8125 Q1443.8531,62.1875 1445.0875,62.1875 Q1445.8219,62.1875 1446.4625,62.3594 Q1447.1188,62.5156 1447.6656,62.875 Z " fill="#000000"/><text fill="#000000" font-family="sans-serif" font-size="14" lengthAdjust="spacing" textLength="69" x="1464.1" y="72.7285">AppTheme</text><line style="stroke:#181818;stroke-width:0.5;" x1="1407.5" x2="1558.5" y1="83" y2="83"/><ellipse cx="1417.5" cy="97.3047" fill="none" rx="3" ry="3" style="stroke:#038048;stroke-width:1.0;"/><text fill="#000000" font-family="sans-serif" font-size="14" lengthAdjust="spacing" textLength="106" x="1426.5" y="101.5332">int selectedColor</text><line style="stroke:#181818;stroke-width:0.5;" x1="1407.5" x2="1558.5" y1="108.6094" y2="108.6094"/><ellipse cx="1417.5" cy="122.9141" fill="#84BE84" rx="3" ry="3" style="stroke:#038048;stroke-width:1.0;"/><text fill="#000000" font-family="sans-serif" font-size="14" lengthAdjust="spacing" textLength="127" x="1426.5" y="127.1426">ThemeData theme()</text></g><!--MD5=[60950e4fd0e4495a1ca434fcaf71fba0]
class si_no_app::domain::entities::message.dart::Message--><g id="elem_si_no_app::domain::entities::message.dart::Message"><rect codeLine="21" fill="#F1F1F1" height="100.8281" id="si_no_app::domain::entities::message.dart::Message" rx="2.5" ry="2.5" style="stroke:#181818;stroke-width:0.5;" width="149" x="1946.5" y="449"/><ellipse cx="1988.5" cy="465" fill="#ADD1B2" rx="11" ry="11" style="stroke:#181818;stroke-width:1.0;"/><path d="M1991.2656,460.875 Q1991.4219,460.6563 1991.6094,460.5469 Q1991.7969,460.4375 1992.0156,460.4375 Q1992.3906,460.4375 1992.625,460.7031 Q1992.8594,460.9531 1992.8594,461.5625 L1992.8594,463.0156 Q1992.8594,463.625 1992.625,463.8906 Q1992.3906,464.1563 1992.0156,464.1563 Q1991.6719,464.1563 1991.4688,463.9531 Q1991.2656,463.7656 1991.1563,463.25 Q1991.1094,462.8906 1990.9219,462.7031 Q1990.5938,462.3281 1989.9844,462.1094 Q1989.375,461.8906 1988.75,461.8906 Q1987.9844,461.8906 1987.3438,462.2188 Q1986.7188,462.5469 1986.2188,463.2969 Q1985.7344,464.0469 1985.7344,465.0781 L1985.7344,466.1719 Q1985.7344,467.4063 1986.625,468.2344 Q1987.5156,469.0469 1989.1094,469.0469 Q1990.0469,469.0469 1990.7031,468.7969 Q1991.0938,468.6406 1991.5156,468.2031 Q1991.7813,467.9375 1991.9219,467.8594 Q1992.0781,467.7813 1992.2813,467.7813 Q1992.6094,467.7813 1992.8594,468.0469 Q1993.125,468.2969 1993.125,468.6406 Q1993.125,468.9844 1992.7813,469.3906 Q1992.2813,469.9688 1991.4844,470.2969 Q1990.4063,470.75 1989.1094,470.75 Q1987.5938,470.75 1986.3906,470.125 Q1985.4063,469.625 1984.7188,468.5625 Q1984.0313,467.4844 1984.0313,466.2031 L1984.0313,465.0469 Q1984.0313,463.7188 1984.6406,462.5781 Q1985.2656,461.4219 1986.3594,460.8125 Q1987.4531,460.1875 1988.6875,460.1875 Q1989.4219,460.1875 1990.0625,460.3594 Q1990.7188,460.5156 1991.2656,460.875 Z " fill="#000000"/><text fill="#000000" font-family="sans-serif" font-size="14" lengthAdjust="spacing" textLength="57" x="2008.5" y="470.7285">Message</text><line style="stroke:#181818;stroke-width:0.5;" x1="1947.5" x2="2094.5" y1="481" y2="481"/><ellipse cx="1957.5" cy="495.3047" fill="none" rx="3" ry="3" style="stroke:#038048;stroke-width:1.0;"/><text fill="#000000" font-family="sans-serif" font-size="14" lengthAdjust="spacing" textLength="63" x="1966.5" y="499.5332">String text</text><ellipse cx="1957.5" cy="512.9141" fill="none" rx="3" ry="3" style="stroke:#038048;stroke-width:1.0;"/><text fill="#000000" font-family="sans-serif" font-size="14" lengthAdjust="spacing" textLength="104" x="1966.5" y="517.1426">String? imageUrl</text><ellipse cx="1957.5" cy="530.5234" fill="none" rx="3" ry="3" style="stroke:#038048;stroke-width:1.0;"/><text fill="#000000" font-family="sans-serif" font-size="14" lengthAdjust="spacing" textLength="123" x="1966.5" y="534.752">FromWho fromWho</text><line style="stroke:#181818;stroke-width:0.5;" x1="1947.5" x2="2094.5" y1="541.8281" y2="541.8281"/></g><!--MD5=[6de149bd3b30ffa27a3decd4632390f0]
class si_no_app::domain::entities::message.dart::FromWho--><g id="elem_si_no_app::domain::entities::message.dart::FromWho"><rect codeLine="29" fill="#F1F1F1" height="118.4375" id="si_no_app::domain::entities::message.dart::FromWho" rx="2.5" ry="2.5" style="stroke:#181818;stroke-width:0.5;" width="171" x="1935.5" y="610"/><ellipse cx="1985.75" cy="626" fill="#ADD1B2" rx="11" ry="11" style="stroke:#181818;stroke-width:1.0;"/><path d="M1988.5156,621.875 Q1988.6719,621.6563 1988.8594,621.5469 Q1989.0469,621.4375 1989.2656,621.4375 Q1989.6406,621.4375 1989.875,621.7031 Q1990.1094,621.9531 1990.1094,622.5625 L1990.1094,624.0156 Q1990.1094,624.625 1989.875,624.8906 Q1989.6406,625.1563 1989.2656,625.1563 Q1988.9219,625.1563 1988.7188,624.9531 Q1988.5156,624.7656 1988.4063,624.25 Q1988.3594,623.8906 1988.1719,623.7031 Q1987.8438,623.3281 1987.2344,623.1094 Q1986.625,622.8906 1986,622.8906 Q1985.2344,622.8906 1984.5938,623.2188 Q1983.9688,623.5469 1983.4688,624.2969 Q1982.9844,625.0469 1982.9844,626.0781 L1982.9844,627.1719 Q1982.9844,628.4063 1983.875,629.2344 Q1984.7656,630.0469 1986.3594,630.0469 Q1987.2969,630.0469 1987.9531,629.7969 Q1988.3438,629.6406 1988.7656,629.2031 Q1989.0313,628.9375 1989.1719,628.8594 Q1989.3281,628.7813 1989.5313,628.7813 Q1989.8594,628.7813 1990.1094,629.0469 Q1990.375,629.2969 1990.375,629.6406 Q1990.375,629.9844 1990.0313,630.3906 Q1989.5313,630.9688 1988.7344,631.2969 Q1987.6563,631.75 1986.3594,631.75 Q1984.8438,631.75 1983.6406,631.125 Q1982.6563,630.625 1981.9688,629.5625 Q1981.2813,628.4844 1981.2813,627.2031 L1981.2813,626.0469 Q1981.2813,624.7188 1981.8906,623.5781 Q1982.5156,622.4219 1983.6094,621.8125 Q1984.7031,621.1875 1985.9375,621.1875 Q1986.6719,621.1875 1987.3125,621.3594 Q1987.9688,621.5156 1988.5156,621.875 Z " fill="#000000"/><text fill="#000000" font-family="sans-serif" font-size="14" lengthAdjust="spacing" textLength="62" x="2006.25" y="631.7285">FromWho</text><line style="stroke:#181818;stroke-width:0.5;" x1="1936.5" x2="2105.5" y1="642" y2="642"/><ellipse cx="1946.5" cy="656.3047" fill="none" rx="3" ry="3" style="stroke:#038048;stroke-width:1.0;"/><text fill="#000000" font-family="sans-serif" font-size="14" lengthAdjust="spacing" textLength="52" x="1955.5" y="660.5332">int index</text><ellipse cx="1946.5" cy="673.9141" fill="none" rx="3" ry="3" style="stroke:#038048;stroke-width:1.0;"/><text fill="#000000" font-family="sans-serif" font-size="14" lengthAdjust="spacing" text-decoration="underline" textLength="145" x="1955.5" y="678.1426">List&lt;FromWho&gt; values</text><ellipse cx="1946.5" cy="691.5234" fill="none" rx="3" ry="3" style="stroke:#038048;stroke-width:1.0;"/><text fill="#000000" font-family="sans-serif" font-size="14" lengthAdjust="spacing" text-decoration="underline" textLength="85" x="1955.5" y="695.752">FromWho me</text><ellipse cx="1946.5" cy="709.1328" fill="none" rx="3" ry="3" style="stroke:#038048;stroke-width:1.0;"/><text fill="#000000" font-family="sans-serif" font-size="14" lengthAdjust="spacing" text-decoration="underline" textLength="99" x="1955.5" y="713.3613">FromWho other</text><line style="stroke:#181818;stroke-width:0.5;" x1="1936.5" x2="2105.5" y1="720.4375" y2="720.4375"/></g><!--MD5=[d6fa34c106194b2f1b35263c212eef4e]
class dart::core::Enum--><g id="elem_dart::core::Enum"><rect fill="#F1F1F1" height="48" id="dart::core::Enum" rx="2.5" ry="2.5" style="stroke:#181818;stroke-width:0.5;" width="68" x="1811" y="475.5"/><ellipse cx="1826" cy="491.5" fill="#ADD1B2" rx="11" ry="11" style="stroke:#181818;stroke-width:1.0;"/><path d="M1828.7656,487.375 Q1828.9219,487.1563 1829.1094,487.0469 Q1829.2969,486.9375 1829.5156,486.9375 Q1829.8906,486.9375 1830.125,487.2031 Q1830.3594,487.4531 1830.3594,488.0625 L1830.3594,489.5156 Q1830.3594,490.125 1830.125,490.3906 Q1829.8906,490.6563 1829.5156,490.6563 Q1829.1719,490.6563 1828.9688,490.4531 Q1828.7656,490.2656 1828.6563,489.75 Q1828.6094,489.3906 1828.4219,489.2031 Q1828.0938,488.8281 1827.4844,488.6094 Q1826.875,488.3906 1826.25,488.3906 Q1825.4844,488.3906 1824.8438,488.7188 Q1824.2188,489.0469 1823.7188,489.7969 Q1823.2344,490.5469 1823.2344,491.5781 L1823.2344,492.6719 Q1823.2344,493.9063 1824.125,494.7344 Q1825.0156,495.5469 1826.6094,495.5469 Q1827.5469,495.5469 1828.2031,495.2969 Q1828.5938,495.1406 1829.0156,494.7031 Q1829.2813,494.4375 1829.4219,494.3594 Q1829.5781,494.2813 1829.7813,494.2813 Q1830.1094,494.2813 1830.3594,494.5469 Q1830.625,494.7969 1830.625,495.1406 Q1830.625,495.4844 1830.2813,495.8906 Q1829.7813,496.4688 1828.9844,496.7969 Q1827.9063,497.25 1826.6094,497.25 Q1825.0938,497.25 1823.8906,496.625 Q1822.9063,496.125 1822.2188,495.0625 Q1821.5313,493.9844 1821.5313,492.7031 L1821.5313,491.5469 Q1821.5313,490.2188 1822.1406,489.0781 Q1822.7656,487.9219 1823.8594,487.3125 Q1824.9531,486.6875 1826.1875,486.6875 Q1826.9219,486.6875 1827.5625,486.8594 Q1828.2188,487.0156 1828.7656,487.375 Z " fill="#000000"/><text fill="#000000" font-family="sans-serif" font-size="14" lengthAdjust="spacing" textLength="36" x="1840" y="497.2285">Enum</text><line style="stroke:#181818;stroke-width:0.5;" x1="1812" x2="1878" y1="507.5" y2="507.5"/><line style="stroke:#181818;stroke-width:0.5;" x1="1812" x2="1878" y1="515.5" y2="515.5"/></g><!--MD5=[14e6dce3cebec8ead35b7df24f2fd5c1]
class si_no_app::main.dart::MyApp--><g id="elem_si_no_app::main.dart::MyApp"><rect codeLine="39" fill="#F1F1F1" height="65.6094" id="si_no_app::main.dart::MyApp" rx="2.5" ry="2.5" style="stroke:#181818;stroke-width:0.5;" width="114" x="649" y="263"/><ellipse cx="681.55" cy="279" fill="#ADD1B2" rx="11" ry="11" style="stroke:#181818;stroke-width:1.0;"/><path d="M684.3156,274.875 Q684.4719,274.6563 684.6594,274.5469 Q684.8469,274.4375 685.0656,274.4375 Q685.4406,274.4375 685.675,274.7031 Q685.9094,274.9531 685.9094,275.5625 L685.9094,277.0156 Q685.9094,277.625 685.675,277.8906 Q685.4406,278.1563 685.0656,278.1563 Q684.7219,278.1563 684.5188,277.9531 Q684.3156,277.7656 684.2063,277.25 Q684.1594,276.8906 683.9719,276.7031 Q683.6438,276.3281 683.0344,276.1094 Q682.425,275.8906 681.8,275.8906 Q681.0344,275.8906 680.3938,276.2188 Q679.7688,276.5469 679.2688,277.2969 Q678.7844,278.0469 678.7844,279.0781 L678.7844,280.1719 Q678.7844,281.4063 679.675,282.2344 Q680.5656,283.0469 682.1594,283.0469 Q683.0969,283.0469 683.7531,282.7969 Q684.1438,282.6406 684.5656,282.2031 Q684.8313,281.9375 684.9719,281.8594 Q685.1281,281.7813 685.3313,281.7813 Q685.6594,281.7813 685.9094,282.0469 Q686.175,282.2969 686.175,282.6406 Q686.175,282.9844 685.8313,283.3906 Q685.3313,283.9688 684.5344,284.2969 Q683.4563,284.75 682.1594,284.75 Q680.6438,284.75 679.4406,284.125 Q678.4563,283.625 677.7688,282.5625 Q677.0813,281.4844 677.0813,280.2031 L677.0813,279.0469 Q677.0813,277.7188 677.6906,276.5781 Q678.3156,275.4219 679.4094,274.8125 Q680.5031,274.1875 681.7375,274.1875 Q682.4719,274.1875 683.1125,274.3594 Q683.7688,274.5156 684.3156,274.875 Z " fill="#000000"/><text fill="#000000" font-family="sans-serif" font-size="14" lengthAdjust="spacing" textLength="43" x="699.45" y="284.7285">MyApp</text><line style="stroke:#181818;stroke-width:0.5;" x1="650" x2="762" y1="295" y2="295"/><line style="stroke:#181818;stroke-width:0.5;" x1="650" x2="762" y1="303" y2="303"/><ellipse cx="660" cy="317.3047" fill="#84BE84" rx="3" ry="3" style="stroke:#038048;stroke-width:1.0;"/><text fill="#000000" font-family="sans-serif" font-size="14" lengthAdjust="spacing" textLength="88" x="669" y="321.5332">Widget build()</text></g><!--MD5=[efc9ff8382eabd0f0b822d1be18a98a9]
class flutter::src::widgets::framework.dart::StatelessWidget--><g id="elem_flutter::src::widgets::framework.dart::StatelessWidget"><rect fill="#F1F1F1" height="48" id="flutter::src::widgets::framework.dart::StatelessWidget" rx="2.5" ry="2.5" style="stroke:#181818;stroke-width:0.5;" width="134" x="1763" y="68.5"/><ellipse cx="1778" cy="84.5" fill="#ADD1B2" rx="11" ry="11" style="stroke:#181818;stroke-width:1.0;"/><path d="M1780.7656,80.375 Q1780.9219,80.1563 1781.1094,80.0469 Q1781.2969,79.9375 1781.5156,79.9375 Q1781.8906,79.9375 1782.125,80.2031 Q1782.3594,80.4531 1782.3594,81.0625 L1782.3594,82.5156 Q1782.3594,83.125 1782.125,83.3906 Q1781.8906,83.6563 1781.5156,83.6563 Q1781.1719,83.6563 1780.9688,83.4531 Q1780.7656,83.2656 1780.6563,82.75 Q1780.6094,82.3906 1780.4219,82.2031 Q1780.0938,81.8281 1779.4844,81.6094 Q1778.875,81.3906 1778.25,81.3906 Q1777.4844,81.3906 1776.8438,81.7188 Q1776.2188,82.0469 1775.7188,82.7969 Q1775.2344,83.5469 1775.2344,84.5781 L1775.2344,85.6719 Q1775.2344,86.9063 1776.125,87.7344 Q1777.0156,88.5469 1778.6094,88.5469 Q1779.5469,88.5469 1780.2031,88.2969 Q1780.5938,88.1406 1781.0156,87.7031 Q1781.2813,87.4375 1781.4219,87.3594 Q1781.5781,87.2813 1781.7813,87.2813 Q1782.1094,87.2813 1782.3594,87.5469 Q1782.625,87.7969 1782.625,88.1406 Q1782.625,88.4844 1782.2813,88.8906 Q1781.7813,89.4688 1780.9844,89.7969 Q1779.9063,90.25 1778.6094,90.25 Q1777.0938,90.25 1775.8906,89.625 Q1774.9063,89.125 1774.2188,88.0625 Q1773.5313,86.9844 1773.5313,85.7031 L1773.5313,84.5469 Q1773.5313,83.2188 1774.1406,82.0781 Q1774.7656,80.9219 1775.8594,80.3125 Q1776.9531,79.6875 1778.1875,79.6875 Q1778.9219,79.6875 1779.5625,79.8594 Q1780.2188,80.0156 1780.7656,80.375 Z " fill="#000000"/><text fill="#000000" font-family="sans-serif" font-size="14" lengthAdjust="spacing" textLength="102" x="1792" y="90.2285">StatelessWidget</text><line style="stroke:#181818;stroke-width:0.5;" x1="1764" x2="1896" y1="100.5" y2="100.5"/><line style="stroke:#181818;stroke-width:0.5;" x1="1764" x2="1896" y1="108.5" y2="108.5"/></g><!--MD5=[048831583f738b7885072eb94fa179cf]
class si_no_app::presentation::chat_screen.dart::ChatScreen--><g id="elem_si_no_app::presentation::chat_screen.dart::ChatScreen"><rect codeLine="45" fill="#F1F1F1" height="65.6094" id="si_no_app::presentation::chat_screen.dart::ChatScreen" rx="2.5" ry="2.5" style="stroke:#181818;stroke-width:0.5;" width="114" x="986" y="263"/><ellipse cx="1004.15" cy="279" fill="#ADD1B2" rx="11" ry="11" style="stroke:#181818;stroke-width:1.0;"/><path d="M1006.9156,274.875 Q1007.0719,274.6563 1007.2594,274.5469 Q1007.4469,274.4375 1007.6656,274.4375 Q1008.0406,274.4375 1008.275,274.7031 Q1008.5094,274.9531 1008.5094,275.5625 L1008.5094,277.0156 Q1008.5094,277.625 1008.275,277.8906 Q1008.0406,278.1563 1007.6656,278.1563 Q1007.3219,278.1563 1007.1188,277.9531 Q1006.9156,277.7656 1006.8063,277.25 Q1006.7594,276.8906 1006.5719,276.7031 Q1006.2438,276.3281 1005.6344,276.1094 Q1005.025,275.8906 1004.4,275.8906 Q1003.6344,275.8906 1002.9938,276.2188 Q1002.3688,276.5469 1001.8688,277.2969 Q1001.3844,278.0469 1001.3844,279.0781 L1001.3844,280.1719 Q1001.3844,281.4063 1002.275,282.2344 Q1003.1656,283.0469 1004.7594,283.0469 Q1005.6969,283.0469 1006.3531,282.7969 Q1006.7438,282.6406 1007.1656,282.2031 Q1007.4313,281.9375 1007.5719,281.8594 Q1007.7281,281.7813 1007.9313,281.7813 Q1008.2594,281.7813 1008.5094,282.0469 Q1008.775,282.2969 1008.775,282.6406 Q1008.775,282.9844 1008.4313,283.3906 Q1007.9313,283.9688 1007.1344,284.2969 Q1006.0563,284.75 1004.7594,284.75 Q1003.2438,284.75 1002.0406,284.125 Q1001.0563,283.625 1000.3688,282.5625 Q999.6813,281.4844 999.6813,280.2031 L999.6813,279.0469 Q999.6813,277.7188 1000.2906,276.5781 Q1000.9156,275.4219 1002.0094,274.8125 Q1003.1031,274.1875 1004.3375,274.1875 Q1005.0719,274.1875 1005.7125,274.3594 Q1006.3688,274.5156 1006.9156,274.875 Z " fill="#000000"/><text fill="#000000" font-family="sans-serif" font-size="14" lengthAdjust="spacing" textLength="75" x="1018.85" y="284.7285">ChatScreen</text><line style="stroke:#181818;stroke-width:0.5;" x1="987" x2="1099" y1="295" y2="295"/><line style="stroke:#181818;stroke-width:0.5;" x1="987" x2="1099" y1="303" y2="303"/><ellipse cx="997" cy="317.3047" fill="#84BE84" rx="3" ry="3" style="stroke:#038048;stroke-width:1.0;"/><text fill="#000000" font-family="sans-serif" font-size="14" lengthAdjust="spacing" textLength="88" x="1006" y="321.5332">Widget build()</text></g><!--MD5=[a47122285157d1a520e5801e348280d2]
class si_no_app::presentation::chat_view.dart::ChatView--><g id="elem_si_no_app::presentation::chat_view.dart::ChatView"><rect codeLine="51" fill="#F1F1F1" height="65.6094" id="si_no_app::presentation::chat_view.dart::ChatView" rx="2.5" ry="2.5" style="stroke:#181818;stroke-width:0.5;" width="114" x="1307" y="263"/><ellipse cx="1332.35" cy="279" fill="#ADD1B2" rx="11" ry="11" style="stroke:#181818;stroke-width:1.0;"/><path d="M1335.1156,274.875 Q1335.2719,274.6563 1335.4594,274.5469 Q1335.6469,274.4375 1335.8656,274.4375 Q1336.2406,274.4375 1336.475,274.7031 Q1336.7094,274.9531 1336.7094,275.5625 L1336.7094,277.0156 Q1336.7094,277.625 1336.475,277.8906 Q1336.2406,278.1563 1335.8656,278.1563 Q1335.5219,278.1563 1335.3188,277.9531 Q1335.1156,277.7656 1335.0063,277.25 Q1334.9594,276.8906 1334.7719,276.7031 Q1334.4438,276.3281 1333.8344,276.1094 Q1333.225,275.8906 1332.6,275.8906 Q1331.8344,275.8906 1331.1938,276.2188 Q1330.5688,276.5469 1330.0688,277.2969 Q1329.5844,278.0469 1329.5844,279.0781 L1329.5844,280.1719 Q1329.5844,281.4063 1330.475,282.2344 Q1331.3656,283.0469 1332.9594,283.0469 Q1333.8969,283.0469 1334.5531,282.7969 Q1334.9438,282.6406 1335.3656,282.2031 Q1335.6313,281.9375 1335.7719,281.8594 Q1335.9281,281.7813 1336.1313,281.7813 Q1336.4594,281.7813 1336.7094,282.0469 Q1336.975,282.2969 1336.975,282.6406 Q1336.975,282.9844 1336.6313,283.3906 Q1336.1313,283.9688 1335.3344,284.2969 Q1334.2563,284.75 1332.9594,284.75 Q1331.4438,284.75 1330.2406,284.125 Q1329.2563,283.625 1328.5688,282.5625 Q1327.8813,281.4844 1327.8813,280.2031 L1327.8813,279.0469 Q1327.8813,277.7188 1328.4906,276.5781 Q1329.1156,275.4219 1330.2094,274.8125 Q1331.3031,274.1875 1332.5375,274.1875 Q1333.2719,274.1875 1333.9125,274.3594 Q1334.5688,274.5156 1335.1156,274.875 Z " fill="#000000"/><text fill="#000000" font-family="sans-serif" font-size="14" lengthAdjust="spacing" textLength="59" x="1348.65" y="284.7285">ChatView</text><line style="stroke:#181818;stroke-width:0.5;" x1="1308" x2="1420" y1="295" y2="295"/><line style="stroke:#181818;stroke-width:0.5;" x1="1308" x2="1420" y1="303" y2="303"/><ellipse cx="1318" cy="317.3047" fill="#84BE84" rx="3" ry="3" style="stroke:#038048;stroke-width:1.0;"/><text fill="#000000" font-family="sans-serif" font-size="14" lengthAdjust="spacing" textLength="88" x="1327" y="321.5332">Widget build()</text></g><!--MD5=[f8fcaa30d3ef6d2b4761835e6c88fd4f]
class si_no_app::presentation::providers::chat_provider.dart::ChatProvider--><g id="elem_si_no_app::presentation::providers::chat_provider.dart::ChatProvider"><rect codeLine="57" fill="#F1F1F1" height="153.6563" id="si_no_app::presentation::providers::chat_provider.dart::ChatProvider" rx="2.5" ry="2.5" style="stroke:#181818;stroke-width:0.5;" width="246" x="270" y="219"/><ellipse cx="347.25" cy="235" fill="#ADD1B2" rx="11" ry="11" style="stroke:#181818;stroke-width:1.0;"/><path d="M350.0156,230.875 Q350.1719,230.6563 350.3594,230.5469 Q350.5469,230.4375 350.7656,230.4375 Q351.1406,230.4375 351.375,230.7031 Q351.6094,230.9531 351.6094,231.5625 L351.6094,233.0156 Q351.6094,233.625 351.375,233.8906 Q351.1406,234.1563 350.7656,234.1563 Q350.4219,234.1563 350.2188,233.9531 Q350.0156,233.7656 349.9063,233.25 Q349.8594,232.8906 349.6719,232.7031 Q349.3438,232.3281 348.7344,232.1094 Q348.125,231.8906 347.5,231.8906 Q346.7344,231.8906 346.0938,232.2188 Q345.4688,232.5469 344.9688,233.2969 Q344.4844,234.0469 344.4844,235.0781 L344.4844,236.1719 Q344.4844,237.4063 345.375,238.2344 Q346.2656,239.0469 347.8594,239.0469 Q348.7969,239.0469 349.4531,238.7969 Q349.8438,238.6406 350.2656,238.2031 Q350.5313,237.9375 350.6719,237.8594 Q350.8281,237.7813 351.0313,237.7813 Q351.3594,237.7813 351.6094,238.0469 Q351.875,238.2969 351.875,238.6406 Q351.875,238.9844 351.5313,239.3906 Q351.0313,239.9688 350.2344,240.2969 Q349.1563,240.75 347.8594,240.75 Q346.3438,240.75 345.1406,240.125 Q344.1563,239.625 343.4688,238.5625 Q342.7813,237.4844 342.7813,236.2031 L342.7813,235.0469 Q342.7813,233.7188 343.3906,232.5781 Q344.0156,231.4219 345.1094,230.8125 Q346.2031,230.1875 347.4375,230.1875 Q348.1719,230.1875 348.8125,230.3594 Q349.4688,230.5156 350.0156,230.875 Z " fill="#000000"/><text fill="#000000" font-family="sans-serif" font-size="14" lengthAdjust="spacing" textLength="83" x="367.75" y="240.7285">ChatProvider</text><line style="stroke:#181818;stroke-width:0.5;" x1="271" x2="515" y1="251" y2="251"/><ellipse cx="281" cy="265.3047" fill="none" rx="3" ry="3" style="stroke:#038048;stroke-width:1.0;"/><text fill="#000000" font-family="sans-serif" font-size="14" lengthAdjust="spacing" textLength="115" x="290" y="269.5332">ScrollController sc</text><ellipse cx="281" cy="282.9141" fill="none" rx="3" ry="3" style="stroke:#038048;stroke-width:1.0;"/><text fill="#000000" font-family="sans-serif" font-size="14" lengthAdjust="spacing" textLength="220" x="290" y="287.1426">GetYesNoAnswer getYesNoanswer</text><ellipse cx="281" cy="300.5234" fill="none" rx="3" ry="3" style="stroke:#038048;stroke-width:1.0;"/><text fill="#000000" font-family="sans-serif" font-size="14" lengthAdjust="spacing" textLength="163" x="290" y="304.752">List&lt;Message&gt; messages</text><line style="stroke:#181818;stroke-width:0.5;" x1="271" x2="515" y1="311.8281" y2="311.8281"/><ellipse cx="281" cy="326.1328" fill="#84BE84" rx="3" ry="3" style="stroke:#038048;stroke-width:1.0;"/><text fill="#000000" font-family="sans-serif" font-size="14" lengthAdjust="spacing" textLength="154" x="290" y="330.3613">dynamic sendMessage()</text><ellipse cx="281" cy="343.7422" fill="#84BE84" rx="3" ry="3" style="stroke:#038048;stroke-width:1.0;"/><text fill="#000000" font-family="sans-serif" font-size="14" lengthAdjust="spacing" textLength="160" x="290" y="347.9707">dynamic scrollToBottom()</text><ellipse cx="281" cy="361.3516" fill="#84BE84" rx="3" ry="3" style="stroke:#038048;stroke-width:1.0;"/><text fill="#000000" font-family="sans-serif" font-size="14" lengthAdjust="spacing" textLength="135" x="290" y="365.5801">dynamic otherReply()</text></g><!--MD5=[136102366341dcd23f85ba7f034576fa]
class flutter::src::widgets::scroll_controller.dart::ScrollController--><g id="elem_flutter::src::widgets::scroll_controller.dart::ScrollController"><rect fill="#F1F1F1" height="48" id="flutter::src::widgets::scroll_controller.dart::ScrollController" rx="2.5" ry="2.5" style="stroke:#181818;stroke-width:0.5;" width="129" x="428.5" y="475.5"/><ellipse cx="443.5" cy="491.5" fill="#ADD1B2" rx="11" ry="11" style="stroke:#181818;stroke-width:1.0;"/><path d="M446.2656,487.375 Q446.4219,487.1563 446.6094,487.0469 Q446.7969,486.9375 447.0156,486.9375 Q447.3906,486.9375 447.625,487.2031 Q447.8594,487.4531 447.8594,488.0625 L447.8594,489.5156 Q447.8594,490.125 447.625,490.3906 Q447.3906,490.6563 447.0156,490.6563 Q446.6719,490.6563 446.4688,490.4531 Q446.2656,490.2656 446.1563,489.75 Q446.1094,489.3906 445.9219,489.2031 Q445.5938,488.8281 444.9844,488.6094 Q444.375,488.3906 443.75,488.3906 Q442.9844,488.3906 442.3438,488.7188 Q441.7188,489.0469 441.2188,489.7969 Q440.7344,490.5469 440.7344,491.5781 L440.7344,492.6719 Q440.7344,493.9063 441.625,494.7344 Q442.5156,495.5469 444.1094,495.5469 Q445.0469,495.5469 445.7031,495.2969 Q446.0938,495.1406 446.5156,494.7031 Q446.7813,494.4375 446.9219,494.3594 Q447.0781,494.2813 447.2813,494.2813 Q447.6094,494.2813 447.8594,494.5469 Q448.125,494.7969 448.125,495.1406 Q448.125,495.4844 447.7813,495.8906 Q447.2813,496.4688 446.4844,496.7969 Q445.4063,497.25 444.1094,497.25 Q442.5938,497.25 441.3906,496.625 Q440.4063,496.125 439.7188,495.0625 Q439.0313,493.9844 439.0313,492.7031 L439.0313,491.5469 Q439.0313,490.2188 439.6406,489.0781 Q440.2656,487.9219 441.3594,487.3125 Q442.4531,486.6875 443.6875,486.6875 Q444.4219,486.6875 445.0625,486.8594 Q445.7188,487.0156 446.2656,487.375 Z " fill="#000000"/><text fill="#000000" font-family="sans-serif" font-size="14" lengthAdjust="spacing" textLength="97" x="457.5" y="497.2285">ScrollController</text><line style="stroke:#181818;stroke-width:0.5;" x1="429.5" x2="556.5" y1="507.5" y2="507.5"/><line style="stroke:#181818;stroke-width:0.5;" x1="429.5" x2="556.5" y1="515.5" y2="515.5"/></g><!--MD5=[4bdc211f364e4b76e397883af82a26e7]
class flutter::src::foundation::change_notifier.dart::ChangeNotifier--><g id="elem_flutter::src::foundation::change_notifier.dart::ChangeNotifier"><rect fill="#F1F1F1" height="48" id="flutter::src::foundation::change_notifier.dart::ChangeNotifier" rx="2.5" ry="2.5" style="stroke:#181818;stroke-width:0.5;" width="126" x="330" y="68.5"/><ellipse cx="345" cy="84.5" fill="#ADD1B2" rx="11" ry="11" style="stroke:#181818;stroke-width:1.0;"/><path d="M347.7656,80.375 Q347.9219,80.1563 348.1094,80.0469 Q348.2969,79.9375 348.5156,79.9375 Q348.8906,79.9375 349.125,80.2031 Q349.3594,80.4531 349.3594,81.0625 L349.3594,82.5156 Q349.3594,83.125 349.125,83.3906 Q348.8906,83.6563 348.5156,83.6563 Q348.1719,83.6563 347.9688,83.4531 Q347.7656,83.2656 347.6563,82.75 Q347.6094,82.3906 347.4219,82.2031 Q347.0938,81.8281 346.4844,81.6094 Q345.875,81.3906 345.25,81.3906 Q344.4844,81.3906 343.8438,81.7188 Q343.2188,82.0469 342.7188,82.7969 Q342.2344,83.5469 342.2344,84.5781 L342.2344,85.6719 Q342.2344,86.9063 343.125,87.7344 Q344.0156,88.5469 345.6094,88.5469 Q346.5469,88.5469 347.2031,88.2969 Q347.5938,88.1406 348.0156,87.7031 Q348.2813,87.4375 348.4219,87.3594 Q348.5781,87.2813 348.7813,87.2813 Q349.1094,87.2813 349.3594,87.5469 Q349.625,87.7969 349.625,88.1406 Q349.625,88.4844 349.2813,88.8906 Q348.7813,89.4688 347.9844,89.7969 Q346.9063,90.25 345.6094,90.25 Q344.0938,90.25 342.8906,89.625 Q341.9063,89.125 341.2188,88.0625 Q340.5313,86.9844 340.5313,85.7031 L340.5313,84.5469 Q340.5313,83.2188 341.1406,82.0781 Q341.7656,80.9219 342.8594,80.3125 Q343.9531,79.6875 345.1875,79.6875 Q345.9219,79.6875 346.5625,79.8594 Q347.2188,80.0156 347.7656,80.375 Z " fill="#000000"/><text fill="#000000" font-family="sans-serif" font-size="14" lengthAdjust="spacing" textLength="94" x="359" y="90.2285">ChangeNotifier</text><line style="stroke:#181818;stroke-width:0.5;" x1="331" x2="455" y1="100.5" y2="100.5"/><line style="stroke:#181818;stroke-width:0.5;" x1="331" x2="455" y1="108.5" y2="108.5"/></g><!--MD5=[6ec748c2aaf17b0f50f19a0428cddcb1]
class si_no_app::presentation::widgets::chat::MyMessageBubble.dart::MyMessageBubble--><g id="elem_si_no_app::presentation::widgets::chat::MyMessageBubble.dart::MyMessageBubble"><rect codeLine="70" fill="#F1F1F1" height="83.2188" id="si_no_app::presentation::widgets::chat::MyMessageBubble.dart::MyMessageBubble" rx="2.5" ry="2.5" style="stroke:#181818;stroke-width:0.5;" width="151" x="1754.5" y="254.5"/><ellipse cx="1769.5" cy="270.5" fill="#ADD1B2" rx="11" ry="11" style="stroke:#181818;stroke-width:1.0;"/><path d="M1772.2656,266.375 Q1772.4219,266.1563 1772.6094,266.0469 Q1772.7969,265.9375 1773.0156,265.9375 Q1773.3906,265.9375 1773.625,266.2031 Q1773.8594,266.4531 1773.8594,267.0625 L1773.8594,268.5156 Q1773.8594,269.125 1773.625,269.3906 Q1773.3906,269.6563 1773.0156,269.6563 Q1772.6719,269.6563 1772.4688,269.4531 Q1772.2656,269.2656 1772.1563,268.75 Q1772.1094,268.3906 1771.9219,268.2031 Q1771.5938,267.8281 1770.9844,267.6094 Q1770.375,267.3906 1769.75,267.3906 Q1768.9844,267.3906 1768.3438,267.7188 Q1767.7188,268.0469 1767.2188,268.7969 Q1766.7344,269.5469 1766.7344,270.5781 L1766.7344,271.6719 Q1766.7344,272.9063 1767.625,273.7344 Q1768.5156,274.5469 1770.1094,274.5469 Q1771.0469,274.5469 1771.7031,274.2969 Q1772.0938,274.1406 1772.5156,273.7031 Q1772.7813,273.4375 1772.9219,273.3594 Q1773.0781,273.2813 1773.2813,273.2813 Q1773.6094,273.2813 1773.8594,273.5469 Q1774.125,273.7969 1774.125,274.1406 Q1774.125,274.4844 1773.7813,274.8906 Q1773.2813,275.4688 1772.4844,275.7969 Q1771.4063,276.25 1770.1094,276.25 Q1768.5938,276.25 1767.3906,275.625 Q1766.4063,275.125 1765.7188,274.0625 Q1765.0313,272.9844 1765.0313,271.7031 L1765.0313,270.5469 Q1765.0313,269.2188 1765.6406,268.0781 Q1766.2656,266.9219 1767.3594,266.3125 Q1768.4531,265.6875 1769.6875,265.6875 Q1770.4219,265.6875 1771.0625,265.8594 Q1771.7188,266.0156 1772.2656,266.375 Z " fill="#000000"/><text fill="#000000" font-family="sans-serif" font-size="14" lengthAdjust="spacing" textLength="119" x="1783.5" y="276.2285">MyMessageBubble</text><line style="stroke:#181818;stroke-width:0.5;" x1="1755.5" x2="1904.5" y1="286.5" y2="286.5"/><ellipse cx="1765.5" cy="300.8047" fill="none" rx="3" ry="3" style="stroke:#038048;stroke-width:1.0;"/><text fill="#000000" font-family="sans-serif" font-size="14" lengthAdjust="spacing" textLength="118" x="1774.5" y="305.0332">Message message</text><line style="stroke:#181818;stroke-width:0.5;" x1="1755.5" x2="1904.5" y1="312.1094" y2="312.1094"/><ellipse cx="1765.5" cy="326.4141" fill="#84BE84" rx="3" ry="3" style="stroke:#038048;stroke-width:1.0;"/><text fill="#000000" font-family="sans-serif" font-size="14" lengthAdjust="spacing" textLength="88" x="1774.5" y="330.6426">Widget build()</text></g><!--MD5=[dfde31241f309d8447a75d2b24797354]
class si_no_app::presentation::widgets::chat::MyMessageBubbleOther.dart::MyMessageBubbleOther--><g id="elem_si_no_app::presentation::widgets::chat::MyMessageBubbleOther.dart::MyMessageBubbleOther"><rect codeLine="78" fill="#F1F1F1" height="100.8281" id="si_no_app::presentation::widgets::chat::MyMessageBubbleOther.dart::MyMessageBubbleOther" rx="2.5" ry="2.5" style="stroke:#181818;stroke-width:0.5;" width="187" x="2119.5" y="245.5"/><ellipse cx="2134.5" cy="261.5" fill="#ADD1B2" rx="11" ry="11" style="stroke:#181818;stroke-width:1.0;"/><path d="M2137.2656,257.375 Q2137.4219,257.1563 2137.6094,257.0469 Q2137.7969,256.9375 2138.0156,256.9375 Q2138.3906,256.9375 2138.625,257.2031 Q2138.8594,257.4531 2138.8594,258.0625 L2138.8594,259.5156 Q2138.8594,260.125 2138.625,260.3906 Q2138.3906,260.6563 2138.0156,260.6563 Q2137.6719,260.6563 2137.4688,260.4531 Q2137.2656,260.2656 2137.1563,259.75 Q2137.1094,259.3906 2136.9219,259.2031 Q2136.5938,258.8281 2135.9844,258.6094 Q2135.375,258.3906 2134.75,258.3906 Q2133.9844,258.3906 2133.3438,258.7188 Q2132.7188,259.0469 2132.2188,259.7969 Q2131.7344,260.5469 2131.7344,261.5781 L2131.7344,262.6719 Q2131.7344,263.9063 2132.625,264.7344 Q2133.5156,265.5469 2135.1094,265.5469 Q2136.0469,265.5469 2136.7031,265.2969 Q2137.0938,265.1406 2137.5156,264.7031 Q2137.7813,264.4375 2137.9219,264.3594 Q2138.0781,264.2813 2138.2813,264.2813 Q2138.6094,264.2813 2138.8594,264.5469 Q2139.125,264.7969 2139.125,265.1406 Q2139.125,265.4844 2138.7813,265.8906 Q2138.2813,266.4688 2137.4844,266.7969 Q2136.4063,267.25 2135.1094,267.25 Q2133.5938,267.25 2132.3906,266.625 Q2131.4063,266.125 2130.7188,265.0625 Q2130.0313,263.9844 2130.0313,262.7031 L2130.0313,261.5469 Q2130.0313,260.2188 2130.6406,259.0781 Q2131.2656,257.9219 2132.3594,257.3125 Q2133.4531,256.6875 2134.6875,256.6875 Q2135.4219,256.6875 2136.0625,256.8594 Q2136.7188,257.0156 2137.2656,257.375 Z " fill="#000000"/><text fill="#000000" font-family="sans-serif" font-size="14" lengthAdjust="spacing" textLength="155" x="2148.5" y="267.2285">MyMessageBubbleOther</text><line style="stroke:#181818;stroke-width:0.5;" x1="2120.5" x2="2305.5" y1="277.5" y2="277.5"/><ellipse cx="2130.5" cy="291.8047" fill="none" rx="3" ry="3" style="stroke:#038048;stroke-width:1.0;"/><text fill="#000000" font-family="sans-serif" font-size="14" lengthAdjust="spacing" textLength="118" x="2139.5" y="296.0332">Message message</text><line style="stroke:#181818;stroke-width:0.5;" x1="2120.5" x2="2305.5" y1="303.1094" y2="303.1094"/><ellipse cx="2130.5" cy="317.4141" fill="#84BE84" rx="3" ry="3" style="stroke:#038048;stroke-width:1.0;"/><text fill="#000000" font-family="sans-serif" font-size="14" lengthAdjust="spacing" textLength="88" x="2139.5" y="321.6426">Widget build()</text><ellipse cx="2130.5" cy="335.0234" fill="#84BE84" rx="3" ry="3" style="stroke:#038048;stroke-width:1.0;"/><text fill="#000000" font-family="sans-serif" font-size="14" lengthAdjust="spacing" textLength="84" x="2139.5" y="339.252">String nouw()</text></g><!--MD5=[5e2138dce499526c4b2f57db7ca2dfdd]
class si_no_app::presentation::widgets::chat::MyMessageBubbleOther.dart::_ImageBubble--><g id="elem_si_no_app::presentation::widgets::chat::MyMessageBubbleOther.dart::_ImageBubble"><rect codeLine="87" fill="#F1F1F1" height="83.2188" id="si_no_app::presentation::widgets::chat::MyMessageBubbleOther.dart::_ImageBubble" rx="2.5" ry="2.5" style="stroke:#181818;stroke-width:0.5;" width="122" x="1962" y="254.5"/><ellipse cx="1977" cy="270.5" fill="#ADD1B2" rx="11" ry="11" style="stroke:#181818;stroke-width:1.0;"/><path d="M1979.7656,266.375 Q1979.9219,266.1563 1980.1094,266.0469 Q1980.2969,265.9375 1980.5156,265.9375 Q1980.8906,265.9375 1981.125,266.2031 Q1981.3594,266.4531 1981.3594,267.0625 L1981.3594,268.5156 Q1981.3594,269.125 1981.125,269.3906 Q1980.8906,269.6563 1980.5156,269.6563 Q1980.1719,269.6563 1979.9688,269.4531 Q1979.7656,269.2656 1979.6563,268.75 Q1979.6094,268.3906 1979.4219,268.2031 Q1979.0938,267.8281 1978.4844,267.6094 Q1977.875,267.3906 1977.25,267.3906 Q1976.4844,267.3906 1975.8438,267.7188 Q1975.2188,268.0469 1974.7188,268.7969 Q1974.2344,269.5469 1974.2344,270.5781 L1974.2344,271.6719 Q1974.2344,272.9063 1975.125,273.7344 Q1976.0156,274.5469 1977.6094,274.5469 Q1978.5469,274.5469 1979.2031,274.2969 Q1979.5938,274.1406 1980.0156,273.7031 Q1980.2813,273.4375 1980.4219,273.3594 Q1980.5781,273.2813 1980.7813,273.2813 Q1981.1094,273.2813 1981.3594,273.5469 Q1981.625,273.7969 1981.625,274.1406 Q1981.625,274.4844 1981.2813,274.8906 Q1980.7813,275.4688 1979.9844,275.7969 Q1978.9063,276.25 1977.6094,276.25 Q1976.0938,276.25 1974.8906,275.625 Q1973.9063,275.125 1973.2188,274.0625 Q1972.5313,272.9844 1972.5313,271.7031 L1972.5313,270.5469 Q1972.5313,269.2188 1973.1406,268.0781 Q1973.7656,266.9219 1974.8594,266.3125 Q1975.9531,265.6875 1977.1875,265.6875 Q1977.9219,265.6875 1978.5625,265.8594 Q1979.2188,266.0156 1979.7656,266.375 Z " fill="#000000"/><text fill="#000000" font-family="sans-serif" font-size="14" lengthAdjust="spacing" textLength="90" x="1991" y="276.2285">_ImageBubble</text><line style="stroke:#181818;stroke-width:0.5;" x1="1963" x2="2083" y1="286.5" y2="286.5"/><ellipse cx="1973" cy="300.8047" fill="none" rx="3" ry="3" style="stroke:#038048;stroke-width:1.0;"/><text fill="#000000" font-family="sans-serif" font-size="14" lengthAdjust="spacing" textLength="65" x="1982" y="305.0332">String? url</text><line style="stroke:#181818;stroke-width:0.5;" x1="1963" x2="2083" y1="312.1094" y2="312.1094"/><ellipse cx="1973" cy="326.4141" fill="#84BE84" rx="3" ry="3" style="stroke:#038048;stroke-width:1.0;"/><text fill="#000000" font-family="sans-serif" font-size="14" lengthAdjust="spacing" textLength="88" x="1982" y="330.6426">Widget build()</text></g><!--MD5=[4a907f52cc8e57762ada5046a23c9701]
class si_no_app::presentation::widgets::shared::message_field_box.dart::MessageFieldBox--><g id="elem_si_no_app::presentation::widgets::shared::message_field_box.dart::MessageFieldBox"><rect codeLine="93" fill="#F1F1F1" height="83.2188" id="si_no_app::presentation::widgets::shared::message_field_box.dart::MessageFieldBox" rx="2.5" ry="2.5" style="stroke:#181818;stroke-width:0.5;" width="214" x="2487" y="254.5"/><ellipse cx="2534.25" cy="270.5" fill="#ADD1B2" rx="11" ry="11" style="stroke:#181818;stroke-width:1.0;"/><path d="M2537.0156,266.375 Q2537.1719,266.1563 2537.3594,266.0469 Q2537.5469,265.9375 2537.7656,265.9375 Q2538.1406,265.9375 2538.375,266.2031 Q2538.6094,266.4531 2538.6094,267.0625 L2538.6094,268.5156 Q2538.6094,269.125 2538.375,269.3906 Q2538.1406,269.6563 2537.7656,269.6563 Q2537.4219,269.6563 2537.2188,269.4531 Q2537.0156,269.2656 2536.9063,268.75 Q2536.8594,268.3906 2536.6719,268.2031 Q2536.3438,267.8281 2535.7344,267.6094 Q2535.125,267.3906 2534.5,267.3906 Q2533.7344,267.3906 2533.0938,267.7188 Q2532.4688,268.0469 2531.9688,268.7969 Q2531.4844,269.5469 2531.4844,270.5781 L2531.4844,271.6719 Q2531.4844,272.9063 2532.375,273.7344 Q2533.2656,274.5469 2534.8594,274.5469 Q2535.7969,274.5469 2536.4531,274.2969 Q2536.8438,274.1406 2537.2656,273.7031 Q2537.5313,273.4375 2537.6719,273.3594 Q2537.8281,273.2813 2538.0313,273.2813 Q2538.3594,273.2813 2538.6094,273.5469 Q2538.875,273.7969 2538.875,274.1406 Q2538.875,274.4844 2538.5313,274.8906 Q2538.0313,275.4688 2537.2344,275.7969 Q2536.1563,276.25 2534.8594,276.25 Q2533.3438,276.25 2532.1406,275.625 Q2531.1563,275.125 2530.4688,274.0625 Q2529.7813,272.9844 2529.7813,271.7031 L2529.7813,270.5469 Q2529.7813,269.2188 2530.3906,268.0781 Q2531.0156,266.9219 2532.1094,266.3125 Q2533.2031,265.6875 2534.4375,265.6875 Q2535.1719,265.6875 2535.8125,265.8594 Q2536.4688,266.0156 2537.0156,266.375 Z " fill="#000000"/><text fill="#000000" font-family="sans-serif" font-size="14" lengthAdjust="spacing" textLength="111" x="2554.75" y="276.2285">MessageFieldBox</text><line style="stroke:#181818;stroke-width:0.5;" x1="2488" x2="2700" y1="286.5" y2="286.5"/><line style="stroke:#181818;stroke-width:0.5;" x1="2488" x2="2700" y1="294.5" y2="294.5"/><ellipse cx="2498" cy="308.8047" fill="#84BE84" rx="3" ry="3" style="stroke:#038048;stroke-width:1.0;"/><text fill="#000000" font-family="sans-serif" font-size="14" lengthAdjust="spacing" textLength="188" x="2507" y="313.0332">void Function(String) onValue</text><ellipse cx="2498" cy="326.4141" fill="#84BE84" rx="3" ry="3" style="stroke:#038048;stroke-width:1.0;"/><text fill="#000000" font-family="sans-serif" font-size="14" lengthAdjust="spacing" textLength="88" x="2507" y="330.6426">Widget build()</text></g><!--MD5=[05571eef8ac46540cf55f348e6959cd2]
class flutter::src::foundation::basic_types.dart::void Function(String)--><g id="elem_flutter::src::foundation::basic_types.dart::void Function(String)"><rect fill="#F1F1F1" height="48" id="flutter::src::foundation::basic_types.dart::void Function(String)" rx="2.5" ry="2.5" style="stroke:#181818;stroke-width:0.5;" width="164" x="2512" y="475.5"/><ellipse cx="2527" cy="491.5" fill="#ADD1B2" rx="11" ry="11" style="stroke:#181818;stroke-width:1.0;"/><path d="M2529.7656,487.375 Q2529.9219,487.1563 2530.1094,487.0469 Q2530.2969,486.9375 2530.5156,486.9375 Q2530.8906,486.9375 2531.125,487.2031 Q2531.3594,487.4531 2531.3594,488.0625 L2531.3594,489.5156 Q2531.3594,490.125 2531.125,490.3906 Q2530.8906,490.6563 2530.5156,490.6563 Q2530.1719,490.6563 2529.9688,490.4531 Q2529.7656,490.2656 2529.6563,489.75 Q2529.6094,489.3906 2529.4219,489.2031 Q2529.0938,488.8281 2528.4844,488.6094 Q2527.875,488.3906 2527.25,488.3906 Q2526.4844,488.3906 2525.8438,488.7188 Q2525.2188,489.0469 2524.7188,489.7969 Q2524.2344,490.5469 2524.2344,491.5781 L2524.2344,492.6719 Q2524.2344,493.9063 2525.125,494.7344 Q2526.0156,495.5469 2527.6094,495.5469 Q2528.5469,495.5469 2529.2031,495.2969 Q2529.5938,495.1406 2530.0156,494.7031 Q2530.2813,494.4375 2530.4219,494.3594 Q2530.5781,494.2813 2530.7813,494.2813 Q2531.1094,494.2813 2531.3594,494.5469 Q2531.625,494.7969 2531.625,495.1406 Q2531.625,495.4844 2531.2813,495.8906 Q2530.7813,496.4688 2529.9844,496.7969 Q2528.9063,497.25 2527.6094,497.25 Q2526.0938,497.25 2524.8906,496.625 Q2523.9063,496.125 2523.2188,495.0625 Q2522.5313,493.9844 2522.5313,492.7031 L2522.5313,491.5469 Q2522.5313,490.2188 2523.1406,489.0781 Q2523.7656,487.9219 2524.8594,487.3125 Q2525.9531,486.6875 2527.1875,486.6875 Q2527.9219,486.6875 2528.5625,486.8594 Q2529.2188,487.0156 2529.7656,487.375 Z " fill="#000000"/><text fill="#000000" font-family="sans-serif" font-size="14" lengthAdjust="spacing" textLength="132" x="2541" y="497.2285">void Function(String)</text><line style="stroke:#181818;stroke-width:0.5;" x1="2513" x2="2675" y1="507.5" y2="507.5"/><line style="stroke:#181818;stroke-width:0.5;" x1="2513" x2="2675" y1="515.5" y2="515.5"/></g><!--MD5=[5d507f220bc1ed8e602a2607170c6bb2]
reverse link si_no_app::config::helpers::get_yes_no_answer.dart::GetYesNoAnswer to dio::src::dio.dart::Dio--><g id="link_si_no_app::config::helpers::get_yes_no_answer.dart::GetYesNoAnswer_dio::src::dio.dart::Dio"><path codeLine="8" d="M293,554.16 C293,584.76 293,621.54 293,644.84 " fill="none" id="si_no_app::config::helpers::get_yes_no_answer.dart::GetYesNoAnswer-backto-dio::src::dio.dart::Dio" style="stroke:#181818;stroke-width:1.0;"/><polygon fill="none" points="293,541.05,289,547.05,293,553.05,297,547.05,293,541.05" style="stroke:#181818;stroke-width:1.0;"/></g><!--MD5=[ed5910f7165d06ee13f19613d38c9092]
reverse link si_no_app::domain::entities::message.dart::Message to si_no_app::domain::entities::message.dart::FromWho--><g id="link_si_no_app::domain::entities::message.dart::Message_si_no_app::domain::entities::message.dart::FromWho"><path codeLine="27" d="M2021,563.38 C2021,578.62 2021,594.83 2021,609.84 " fill="none" id="si_no_app::domain::entities::message.dart::Message-backto-si_no_app::domain::entities::message.dart::FromWho" style="stroke:#181818;stroke-width:1.0;"/><polygon fill="none" points="2021,550.3,2017,556.3,2021,562.3,2025,556.3,2021,550.3" style="stroke:#181818;stroke-width:1.0;"/></g><!--MD5=[39f317ba5642c4ec72c40f10d5d06e5b]
reverse link si_no_app::domain::entities::message.dart::FromWho to si_no_app::domain::entities::message.dart::FromWho--><g id="link_si_no_app::domain::entities::message.dart::FromWho_si_no_app::domain::entities::message.dart::FromWho"><path codeLine="36" d="M2119.31,641.04 C2132.63,645.72 2141.5,655.04 2141.5,669 C2141.5,687.05 2126.67,697.34 2106.56,699.88 " fill="none" id="si_no_app::domain::entities::message.dart::FromWho-backto-si_no_app::domain::entities::message.dart::FromWho" style="stroke:#181818;stroke-width:1.0;"/><polygon fill="none" points="2106.56,638.12,2111.5164,643.3577,2118.2576,640.7971,2113.3012,635.5594,2106.56,638.12" style="stroke:#181818;stroke-width:1.0;"/></g><!--MD5=[660dc6d85c498a40e2e48f38d7685817]
reverse link dart::core::Enum to si_no_app::domain::entities::message.dart::FromWho--><g id="link_dart::core::Enum_si_no_app::domain::entities::message.dart::FromWho"><path codeLine="37" d="M1884.15,537.76 C1906.43,558.97 1934.84,586 1959.99,609.94 " fill="none" id="dart::core::Enum-backto-si_no_app::domain::entities::message.dart::FromWho" style="stroke:#181818;stroke-width:1.0;"/><polygon fill="none" points="1879.13,542.65,1869.47,523.79,1888.79,532.51,1879.13,542.65" style="stroke:#181818;stroke-width:1.0;"/></g><!--MD5=[bd1de3a63dcdb52f0f91c43f5ce89ecb]
reverse link flutter::src::widgets::framework.dart::StatelessWidget to si_no_app::main.dart::MyApp--><g id="link_flutter::src::widgets::framework.dart::StatelessWidget_si_no_app::main.dart::MyApp"><path codeLine="43" d="M1748.79,123.05 C1699.54,139.44 1635,158.24 1576,167 C1509.39,176.89 1035.72,160.31 970,175 C892.86,192.24 811.04,233.47 759.3,262.78 " fill="none" id="flutter::src::widgets::framework.dart::StatelessWidget-backto-si_no_app::main.dart::MyApp" style="stroke:#181818;stroke-width:1.0;"/><polygon fill="none" points="1746.7,116.36,1767.89,116.56,1751.21,129.62,1746.7,116.36" style="stroke:#181818;stroke-width:1.0;"/></g><!--MD5=[440cab2d2a3451e6cae81b4ecb20543b]
reverse link flutter::src::widgets::framework.dart::StatelessWidget to si_no_app::presentation::chat_screen.dart::ChatScreen--><g id="link_flutter::src::widgets::framework.dart::StatelessWidget_si_no_app::presentation::chat_screen.dart::ChatScreen"><path codeLine="49" d="M1747.99,122.97 C1698.81,139.2 1634.63,157.85 1576,167 C1513.4,176.77 1352.55,159.98 1291,175 C1218.28,192.75 1141.79,233.64 1093.31,262.75 " fill="none" id="flutter::src::widgets::framework.dart::StatelessWidget-backto-si_no_app::presentation::chat_screen.dart::ChatScreen" style="stroke:#181818;stroke-width:1.0;"/><polygon fill="none" points="1745.88,116.3,1767.07,116.56,1750.35,129.57,1745.88,116.3" style="stroke:#181818;stroke-width:1.0;"/></g><!--MD5=[cfe89e9ccb1c985a7ac77d81cb18ea2f]
reverse link flutter::src::widgets::framework.dart::StatelessWidget to si_no_app::presentation::chat_view.dart::ChatView--><g id="link_flutter::src::widgets::framework.dart::StatelessWidget_si_no_app::presentation::chat_view.dart::ChatView"><path codeLine="55" d="M1758.1,124.59 C1665.42,164.67 1506.09,233.56 1421.18,270.27 " fill="none" id="flutter::src::widgets::framework.dart::StatelessWidget-backto-si_no_app::presentation::chat_view.dart::ChatView" style="stroke:#181818;stroke-width:1.0;"/><polygon fill="none" points="1755.41,118.13,1776.54,116.61,1760.96,130.98,1755.41,118.13" style="stroke:#181818;stroke-width:1.0;"/></g><!--MD5=[23e4288c03ad25418acb7a90c877b374]
reverse link si_no_app::presentation::providers::chat_provider.dart::ChatProvider to flutter::src::widgets::scroll_controller.dart::ScrollController--><g id="link_si_no_app::presentation::providers::chat_provider.dart::ChatProvider_flutter::src::widgets::scroll_controller.dart::ScrollController"><path codeLine="66" d="M436.79,385.24 C453.18,418.26 470.47,453.11 481.48,475.28 " fill="none" id="si_no_app::presentation::providers::chat_provider.dart::ChatProvider-backto-flutter::src::widgets::scroll_controller.dart::ScrollController" style="stroke:#181818;stroke-width:1.0;"/><polygon fill="none" points="430.81,373.18,429.898,380.3332,436.1502,383.9263,437.0622,376.7731,430.81,373.18" style="stroke:#181818;stroke-width:1.0;"/></g><!--MD5=[f76f020c3aa95427c174c28a867b22d5]
reverse link si_no_app::presentation::providers::chat_provider.dart::ChatProvider to si_no_app::config::helpers::get_yes_no_answer.dart::GetYesNoAnswer--><g id="link_si_no_app::presentation::providers::chat_provider.dart::ChatProvider_si_no_app::config::helpers::get_yes_no_answer.dart::GetYesNoAnswer"><path codeLine="67" d="M349.28,385.11 C336.7,410.44 323.6,436.85 313.2,457.8 " fill="none" id="si_no_app::presentation::providers::chat_provider.dart::ChatProvider-backto-si_no_app::config::helpers::get_yes_no_answer.dart::GetYesNoAnswer" style="stroke:#181818;stroke-width:1.0;"/><polygon fill="none" points="355.19,373.18,348.9378,376.7731,349.8498,383.9263,356.102,380.3332,355.19,373.18" style="stroke:#181818;stroke-width:1.0;"/></g><!--MD5=[1e02e01fd92d84b23e36014f012d7017]
reverse link flutter::src::foundation::change_notifier.dart::ChangeNotifier to si_no_app::presentation::providers::chat_provider.dart::ChatProvider--><g id="link_flutter::src::foundation::change_notifier.dart::ChangeNotifier_si_no_app::presentation::providers::chat_provider.dart::ChatProvider"><path codeLine="68" d="M393,136.88 C393,160.8 393,191.19 393,218.92 " fill="none" id="flutter::src::foundation::change_notifier.dart::ChangeNotifier-backto-si_no_app::presentation::providers::chat_provider.dart::ChatProvider" style="stroke:#181818;stroke-width:1.0;"/><polygon fill="none" points="386,136.61,393,116.61,400,136.61,386,136.61" style="stroke:#181818;stroke-width:1.0;"/></g><!--MD5=[e6c9202c9935de49ca8997c43b42f985]
reverse link si_no_app::presentation::widgets::chat::MyMessageBubble.dart::MyMessageBubble to si_no_app::domain::entities::message.dart::Message--><g id="link_si_no_app::presentation::widgets::chat::MyMessageBubble.dart::MyMessageBubble_si_no_app::domain::entities::message.dart::Message"><path codeLine="75" d="M1877.89,347.52 C1907.27,378.52 1944.73,418.04 1973.96,448.87 " fill="none" id="si_no_app::presentation::widgets::chat::MyMessageBubble.dart::MyMessageBubble-backto-si_no_app::domain::entities::message.dart::Message" style="stroke:#181818;stroke-width:1.0;"/><polygon fill="none" points="1868.65,337.78,1869.8715,344.8869,1876.9015,346.4928,1875.68,339.3859,1868.65,337.78" style="stroke:#181818;stroke-width:1.0;"/></g><!--MD5=[d98d1e08dfc10ed9741078b7e90f048a]
reverse link flutter::src::widgets::framework.dart::StatelessWidget to si_no_app::presentation::widgets::chat::MyMessageBubble.dart::MyMessageBubble--><g id="link_flutter::src::widgets::framework.dart::StatelessWidget_si_no_app::presentation::widgets::chat::MyMessageBubble.dart::MyMessageBubble"><path codeLine="76" d="M1830,136.77 C1830,171.64 1830,220.31 1830,254.44 " fill="none" id="flutter::src::widgets::framework.dart::StatelessWidget-backto-si_no_app::presentation::widgets::chat::MyMessageBubble.dart::MyMessageBubble" style="stroke:#181818;stroke-width:1.0;"/><polygon fill="none" points="1823,136.61,1830,116.61,1837,136.61,1823,136.61" style="stroke:#181818;stroke-width:1.0;"/></g><!--MD5=[e71ae43067ddf523d6880ee6f636c510]
reverse link si_no_app::presentation::widgets::chat::MyMessageBubbleOther.dart::MyMessageBubbleOther to si_no_app::domain::entities::message.dart::Message--><g id="link_si_no_app::presentation::widgets::chat::MyMessageBubbleOther.dart::MyMessageBubbleOther_si_no_app::domain::entities::message.dart::Message"><path codeLine="84" d="M2156.51,356.29 C2128.49,385.69 2095.03,420.81 2068.36,448.79 " fill="none" id="si_no_app::presentation::widgets::chat::MyMessageBubbleOther.dart::MyMessageBubbleOther-backto-si_no_app::domain::entities::message.dart::Message" style="stroke:#181818;stroke-width:1.0;"/><polygon fill="none" points="2165.79,346.55,2158.755,348.1341,2157.5115,355.2371,2164.5465,353.6531,2165.79,346.55" style="stroke:#181818;stroke-width:1.0;"/></g><!--MD5=[e4f289ba35039673676aaafd0a35b8a0]
reverse link flutter::src::widgets::framework.dart::StatelessWidget to si_no_app::presentation::widgets::chat::MyMessageBubbleOther.dart::MyMessageBubbleOther--><g id="link_flutter::src::widgets::framework.dart::StatelessWidget_si_no_app::presentation::widgets::chat::MyMessageBubbleOther.dart::MyMessageBubbleOther"><path codeLine="85" d="M1916.82,107.26 C1972.82,118.99 2045.47,139.74 2102,175 C2131.14,193.17 2157.53,220.98 2177.26,245.25 " fill="none" id="flutter::src::widgets::framework.dart::StatelessWidget-backto-si_no_app::presentation::widgets::chat::MyMessageBubbleOther.dart::MyMessageBubbleOther" style="stroke:#181818;stroke-width:1.0;"/><polygon fill="none" points="1915.27,114.09,1897.01,103.34,1917.98,100.36,1915.27,114.09" style="stroke:#181818;stroke-width:1.0;"/></g><!--MD5=[02216ff13b46692225560a277ecfdbc8]
reverse link flutter::src::widgets::framework.dart::StatelessWidget to si_no_app::presentation::widgets::chat::MyMessageBubbleOther.dart::_ImageBubble--><g id="link_flutter::src::widgets::framework.dart::StatelessWidget_si_no_app::presentation::widgets::chat::MyMessageBubbleOther.dart::_ImageBubble"><path codeLine="92" d="M1873.82,130.01 C1889.48,143.65 1906.96,159.58 1922,175 C1946.52,200.15 1971.98,230.43 1991.2,254.27 " fill="none" id="flutter::src::widgets::framework.dart::StatelessWidget-backto-si_no_app::presentation::widgets::chat::MyMessageBubbleOther.dart::_ImageBubble" style="stroke:#181818;stroke-width:1.0;"/><polygon fill="none" points="1868.97,135.07,1858.34,116.74,1878.08,124.44,1868.97,135.07" style="stroke:#181818;stroke-width:1.0;"/></g><!--MD5=[ca44654dc631c50d068f6cea4f0dbe71]
reverse link si_no_app::presentation::widgets::shared::message_field_box.dart::MessageFieldBox to flutter::src::foundation::basic_types.dart::void Function(String)--><g id="link_si_no_app::presentation::widgets::shared::message_field_box.dart::MessageFieldBox_flutter::src::foundation::basic_types.dart::void Function(String)"><path codeLine="98" d="M2594,350.99 C2594,391.6 2594,445.22 2594,475.36 " fill="none" id="si_no_app::presentation::widgets::shared::message_field_box.dart::MessageFieldBox-backto-flutter::src::foundation::basic_types.dart::void Function(String)" style="stroke:#181818;stroke-width:1.0;"/><polygon fill="none" points="2594,337.78,2590,343.78,2594,349.78,2598,343.78,2594,337.78" style="stroke:#181818;stroke-width:1.0;"/></g><!--MD5=[ebe46e6047f7bb287044d2cba532adea]
reverse link flutter::src::widgets::framework.dart::StatelessWidget to si_no_app::presentation::widgets::shared::message_field_box.dart::MessageFieldBox--><g id="link_flutter::src::widgets::framework.dart::StatelessWidget_si_no_app::presentation::widgets::shared::message_field_box.dart::MessageFieldBox"><path codeLine="99" d="M1917.32,101.2 C2017.04,111.53 2184.34,133.57 2323,175 C2390.54,195.18 2463.41,228.13 2516.55,254.4 " fill="none" id="flutter::src::widgets::framework.dart::StatelessWidget-backto-si_no_app::presentation::widgets::shared::message_field_box.dart::MessageFieldBox" style="stroke:#181818;stroke-width:1.0;"/><polygon fill="none" points="1916.6,108.16,1897.4,99.2,1918,94.23,1916.6,108.16" style="stroke:#181818;stroke-width:1.0;"/></g><!--MD5=[90e33d59a76b1256a7a2801eaadf7ec1]
@startuml
set namespaceSeparator ::

class "si_no_app::config::helpers::get_yes_no_answer.dart::GetYesNoAnswer" {
  -Dio _dio
  +dynamic getAnswer()
}

"si_no_app::config::helpers::get_yes_no_answer.dart::GetYesNoAnswer" o- - "dio::src::dio.dart::Dio"

class "si_no_app::config::infrastructure::model::yes_no_model.dart::YesNoModel" {
  +String answer
  +bool forced
  +String imageUrl
}

class "si_no_app::config::theme::app_theme.dart::AppTheme" {
  +int selectedColor
  +ThemeData theme()
}

class "si_no_app::domain::entities::message.dart::Message" {
  +String text
  +String? imageUrl
  +FromWho fromWho
}

"si_no_app::domain::entities::message.dart::Message" o- - "si_no_app::domain::entities::message.dart::FromWho"

class "si_no_app::domain::entities::message.dart::FromWho" {
  +int index
  {static} +List<FromWho> values
  {static} +FromWho me
  {static} +FromWho other
}

"si_no_app::domain::entities::message.dart::FromWho" o- - "si_no_app::domain::entities::message.dart::FromWho"
"dart::core::Enum" <|- - "si_no_app::domain::entities::message.dart::FromWho"

class "si_no_app::main.dart::MyApp" {
  +Widget build()
}

"flutter::src::widgets::framework.dart::StatelessWidget" <|- - "si_no_app::main.dart::MyApp"

class "si_no_app::presentation::chat_screen.dart::ChatScreen" {
  +Widget build()
}

"flutter::src::widgets::framework.dart::StatelessWidget" <|- - "si_no_app::presentation::chat_screen.dart::ChatScreen"

class "si_no_app::presentation::chat_view.dart::ChatView" {
  +Widget build()
}

"flutter::src::widgets::framework.dart::StatelessWidget" <|- - "si_no_app::presentation::chat_view.dart::ChatView"

class "si_no_app::presentation::providers::chat_provider.dart::ChatProvider" {
  +ScrollController sc
  +GetYesNoAnswer getYesNoanswer
  +List<Message> messages
  +dynamic sendMessage()
  +dynamic scrollToBottom()
  +dynamic otherReply()
}

"si_no_app::presentation::providers::chat_provider.dart::ChatProvider" o- - "flutter::src::widgets::scroll_controller.dart::ScrollController"   
"si_no_app::presentation::providers::chat_provider.dart::ChatProvider" o- - "si_no_app::config::helpers::get_yes_no_answer.dart::GetYesNoAnswer"
"flutter::src::foundation::change_notifier.dart::ChangeNotifier" <|- - "si_no_app::presentation::providers::chat_provider.dart::ChatProvider"   

class "si_no_app::presentation::widgets::chat::MyMessageBubble.dart::MyMessageBubble" {
  +Message message
  +Widget build()
}

"si_no_app::presentation::widgets::chat::MyMessageBubble.dart::MyMessageBubble" o- - "si_no_app::domain::entities::message.dart::Message"       
"flutter::src::widgets::framework.dart::StatelessWidget" <|- - "si_no_app::presentation::widgets::chat::MyMessageBubble.dart::MyMessageBubble"  

class "si_no_app::presentation::widgets::chat::MyMessageBubbleOther.dart::MyMessageBubbleOther" {
  +Message message
  +Widget build()
  +String nouw()
}

"si_no_app::presentation::widgets::chat::MyMessageBubbleOther.dart::MyMessageBubbleOther" o- - "si_no_app::domain::entities::message.dart::Message"
"flutter::src::widgets::framework.dart::StatelessWidget" <|- - "si_no_app::presentation::widgets::chat::MyMessageBubbleOther.dart::MyMessageBubbleOther"

class "si_no_app::presentation::widgets::chat::MyMessageBubbleOther.dart::_ImageBubble" {
  +String? url
  +Widget build()
}

"flutter::src::widgets::framework.dart::StatelessWidget" <|- - "si_no_app::presentation::widgets::chat::MyMessageBubbleOther.dart::_ImageBubble"
class "si_no_app::presentation::widgets::shared::message_field_box.dart::MessageFieldBox" {
  +void Function(String) onValue
  +Widget build()
}

"si_no_app::presentation::widgets::shared::message_field_box.dart::MessageFieldBox" o- - "flutter::src::foundation::basic_types.dart::void Function(String)"
"flutter::src::widgets::framework.dart::StatelessWidget" <|- - "si_no_app::presentation::widgets::shared::message_field_box.dart::MessageFieldBox"


@enduml

PlantUML version 1.2022.7(Mon Aug 22 11:01:30 CST 2022)
(GPL source distribution)
Java Runtime: Java(TM) SE Runtime Environment
JVM: Java HotSpot(TM) 64-Bit Server VM
Default Encoding: Cp1252
Language: es
Country: ES
--></g></svg>